<svg xmlns="http://www.w3.org/2000/svg" version="1.0" width="600" height="600" viewBox="0 0 600 600" preserveAspectRatio="xMidYMid meet"><default:g xmlns:default="http://www.w3.org/2000/svg" transform="translate(0.000000,600.000000) scale(0.100000,-0.100000)" fill="#000000" stroke="none"><default:path d="M409 5705 c-3 -2 -32 -5 -65 -6 -54 -2 -62 -5 -96 -39 l-38 -37 1 -1249 c1 -1201 2 -1250 20 -1275 10 -14 15 -29 12 -33 -4 -4 1 -4 11 0 14 5 17 4 12 -4 -8 -13 -8 -14 51 -17 38 -2 47 1 72 31 37 42 43 81 45 290 l1 163 430 0 c413 -1 485 3 485 22 0 5 6 9 14 9 32 0 37 64 39 561 2 272 1 504 -1 517 -3 13 -20 39 -39 58 -30 31 -39 35 -66 30 -18 -4 -40 -7 -51 -7 -10 0 -16 -3 -13 -6 9 -8 -17 -32 -27 -25 -5 3 -7 -2 -3 -10 3 -9 1 -20 -4 -25 -5 -5 -9 -205 -9 -454 l-1 -446 -47 -5 c-34 -3 -659 -2 -702 2 -3 0 -5 162 -5 359 0 216 -4 357 -9 353 -5 -3 -6 2 -3 12 4 10 7 22 7 26 0 13 379 18 384 5 3 -6 8 -6 13 1 4 6 22 19 40 28 38 19 43 26 48 67 4 35 -22 112 -36 103 -5 -3 -9 -1 -9 4 0 13 -14 14 -235 15 l-200 2 0 380 0 380 170 3 c115 2 176 -1 191 -9 14 -7 40 -9 70 -4 27 3 105 9 174 11 110 5 126 3 137 -12 10 -13 13 -69 13 -205 0 -116 4 -197 11 -212 6 -14 28 -34 50 -46 31 -18 42 -20 60 -11 11 6 28 9 37 5 9 -3 13 -3 9 1 -4 4 2 13 12 20 30 22 39 89 36 271 -2 122 1 175 9 182 7 6 274 10 700 9 449 0 684 -4 675 -10 -10 -7 -8 -8 6 -2 27 10 1789 14 1795 3 3 -4 5 -93 4 -196 -2 -194 5 -234 43 -256 7 -5 10 -13 7 -19 -5 -7 -2 -8 6 -3 7 4 16 2 20 -6 6 -9 12 -10 22 -2 7 6 29 10 49 9 26 -1 35 2 32 11 -3 7 2 16 11 19 9 3 14 10 11 14 -3 5 -1 12 5 15 7 4 10 75 10 201 -1 106 1 198 5 204 3 6 11 7 17 4 6 -4 9 -3 6 2 -7 11 246 11 282 0 19 -6 21 -5 10 3 -11 8 36 10 165 7 99 -3 180 -5 180 -6 0 -2 12 -3 27 -4 15 -1 24 2 22 6 -3 4 4 8 15 8 12 0 22 -3 22 -7 17 -104 12 -738 -6 -753 -9 -8 -95 -8 -242 -1 -22 1 -22 3 -27 214 -5 242 -5 247 -25 239 -10 -4 -12 -1 -6 8 5 9 4 11 -3 6 -7 -4 -12 -2 -12 3 0 12 -61 15 -97 5 -13 -4 -32 -22 -44 -40 -17 -29 -20 -48 -18 -122 5 -175 -3 -446 -12 -431 -6 10 -9 11 -9 1 0 -7 7 -15 15 -18 8 -4 15 -12 15 -19 0 -6 9 -20 20 -30 11 -10 18 -21 15 -25 -2 -3 10 -4 27 -2 l31 5 -29 12 c-16 7 -35 24 -42 39 -15 34 -17 548 -2 577 25 45 97 54 140 17 19 -17 20 -30 20 -237 l0 -220 156 -3 c86 -2 158 -1 160 1 2 2 4 183 4 402 l0 398 -397 -2 -398 -2 -5 -221 c-5 -200 -7 -224 -24 -243 -37 -40 -145 -17 -146 32 -1 7 -2 107 -3 222 l-2 210 -1615 -1 -1615 -1 -2 -218 c-3 -209 -4 -220 -25 -242 -31 -33 -91 -32 -123 3 -25 27 -25 27 -25 245 l0 217 -400 -1 -400 -2 0 -400 0 -400 214 3 214 3 31 -27 c34 -28 41 -67 19 -107 -23 -45 -33 -46 -260 -47 l-218 0 0 -400 0 -400 400 0 400 0 0 449 c0 300 4 458 11 480 8 21 19 33 37 37 15 3 33 7 40 10 20 6 60 -14 72 -36 8 -15 11 -170 11 -533 0 -282 -1 -518 -1 -525 0 -7 -11 -24 -25 -37 l-24 -25 -461 0 -460 0 0 -211 c0 -213 -4 -239 -39 -266 -27 -21 -77 -15 -108 11 l-28 24 -1 1240 c-1 681 -5 1245 -9 1252 -5 9 -4 11 3 6 8 -5 12 0 12 13 0 11 12 29 26 40 l27 21 2706 0 c2964 0 2738 5 2758 -57 6 -17 9 -540 8 -1272 l-1 -1243 -27 -24 c-31 -26 -82 -31 -108 -11 -35 27 -39 53 -39 266 l0 211 -462 2 c-255 0 -468 1 -475 1 -7 0 -11 2 -10 6 0 3 -5 17 -12 31 -18 32 -20 1045 -2 1078 23 43 104 47 138 8 l23 -27 0 -460 0 -459 400 0 400 0 0 400 0 400 -196 0 c-169 0 -198 -2 -212 -17 -16 -15 -15 -16 8 -10 14 3 95 7 180 7 211 1 200 2 200 -16 0 -9 -5 -12 -12 -8 -10 6 -10 4 0 -8 7 -9 12 -31 12 -49 -3 -135 -3 -214 -4 -431 0 -137 -3 -248 -6 -249 -23 -5 -731 -4 -739 1 -7 4 -11 157 -12 453 0 249 -4 449 -9 452 -5 3 -6 13 -3 22 5 12 3 14 -7 8 -10 -6 -12 -4 -7 8 4 12 2 14 -10 10 -11 -4 -14 -2 -9 5 4 8 2 10 -7 6 -8 -3 -18 -1 -22 5 -3 6 -17 11 -30 11 -13 0 -27 -5 -30 -11 -4 -6 -13 -8 -20 -5 -7 2 -16 -3 -20 -12 -5 -14 -7 -14 -16 -2 -9 12 -10 11 -5 -4 4 -10 1 -25 -6 -34 -10 -12 -13 -129 -13 -529 0 -567 0 -563 62 -593 27 -13 91 -14 452 -10 276 3 422 2 425 -5 3 -5 5 -5 5 2 1 7 7 10 15 7 12 -5 15 -42 16 -197 1 -228 2 -247 11 -241 11 6 31 -24 24 -35 -4 -7 1 -8 11 -4 11 4 15 2 11 -4 -4 -6 12 -10 43 -9 27 0 47 3 44 5 -2 2 9 12 25 22 19 12 31 30 39 61 8 30 11 409 11 1256 1 1255 1 1245 -39 1280 -11 10 -11 11 -1 6 9 -5 12 -3 7 4 -4 7 -24 12 -44 12 -20 0 -32 4 -25 8 6 4 -302 5 -685 3 -813 -4 -837 -4 -921 5 -49 4 -62 3 -56 -7 6 -9 1 -10 -21 -4 -39 12 -964 14 -964 3 0 -5 -4 -7 -9 -4 -16 11 -1110 14 -1113 4 -2 -6 -75 -4 -194 3 -157 11 -204 10 -262 -1 -56 -10 -86 -11 -144 -1 -82 12 -329 11 -321 -3 3 -4 -14 -5 -38 0 -50 9 -434 8 -491 -2 -25 -4 -38 -2 -38 5 0 11 -13 15 -21 6z"/><default:path d="M287 5654 c-11 -7 -24 -20 -28 -30 -4 -11 -8 -575 -8 -1255 -1 -1236 -1 -1236 20 -1263 24 -31 66 -35 98 -8 20 16 21 27 24 242 l2 225 467 3 467 2 21 27 c20 26 20 32 18 541 l-3 514 -24 19 c-30 24 -52 24 -85 -2 l-26 -20 0 -470 0 -469 -420 0 -420 0 2 418 3 417 228 5 c212 5 230 6 243 24 23 32 17 72 -12 95 -25 20 -39 21 -245 21 l-219 0 0 415 0 415 420 0 420 0 0 -223 c0 -201 2 -225 17 -239 36 -32 61 -31 93 1 l30 29 0 216 0 216 1630 0 1630 0 0 -214 c0 -201 1 -215 21 -240 25 -32 77 -36 102 -8 15 16 17 48 17 240 l0 222 420 0 420 0 0 -415 0 -415 -175 0 -175 0 0 48 c-1 26 0 120 0 209 1 129 -2 169 -15 193 -8 16 -21 30 -28 31 -6 0 -20 2 -29 4 -10 2 -29 -6 -43 -17 l-25 -19 0 -278 c0 -255 1 -279 18 -294 15 -14 51 -17 243 -19 l224 -3 3 -417 2 -418 -420 0 -420 0 0 469 c0 511 2 493 -56 507 -30 8 -72 -18 -79 -49 -3 -12 -4 -248 -3 -523 3 -477 4 -503 22 -523 19 -21 24 -21 488 -21 l468 0 0 -225 c0 -212 1 -226 20 -245 27 -27 71 -26 98 3 l22 23 0 1242 0 1241 -22 26 -23 25 -2698 3 c-2007 1 -2704 -1 -2720 -9z m5424 -25 c19 -19 19 -44 17 -1264 -2 -869 -6 -1247 -14 -1255 -19 -19 -52 -19 -69 0 -15 17 -17 48 -19 247 l-1 228 -475 3 c-432 2 -476 4 -487 19 -10 13 -13 134 -13 524 0 551 -1 539 54 539 54 0 54 4 52 -508 l-1 -472 437 0 438 0 -1 440 0 440 -234 0 c-230 0 -234 0 -249 22 -14 19 -16 62 -16 273 0 211 2 254 16 273 19 27 48 28 74 2 19 -19 20 -33 20 -245 l0 -225 195 0 194 0 1 435 0 435 -437 0 -438 0 1 -202 c1 -112 -1 -218 -4 -236 -6 -45 -41 -62 -77 -38 l-25 16 0 230 0 230 -1650 0 -1650 0 0 -223 c0 -185 -3 -226 -16 -245 -19 -27 -48 -28 -73 -3 -18 18 -19 35 -18 245 l2 226 -438 0 -437 0 0 -435 1 -435 232 0 c249 0 257 -2 257 -50 0 -48 -8 -50 -257 -50 l-233 0 0 -440 0 -440 438 0 437 0 -1 466 c0 315 3 472 11 487 14 28 51 34 76 11 18 -16 19 -37 19 -524 0 -389 -3 -510 -12 -523 -12 -15 -56 -17 -488 -19 l-475 -3 -3 -229 c-1 -149 -6 -234 -13 -243 -14 -16 -61 -17 -77 -1 -9 9 -12 303 -12 1259 0 1228 0 1248 20 1262 16 11 447 13 2710 14 2650 2 2692 1 2711 -18z"/><default:path d="M331 3744 c0 -11 3 -14 6 -6 3 7 2 16 -1 19 -3 4 -6 -2 -5 -13z"/><default:path d="M1750 5205 c-7 -9 -19 -14 -27 -11 -8 3 -11 1 -8 -4 3 -6 -1 -10 -9 -10 -9 0 -13 -6 -10 -14 3 -8 1 -17 -5 -21 -6 -3 -11 -26 -11 -50 0 -36 5 -47 32 -70 18 -15 39 -24 50 -22 10 3 18 2 18 -1 0 -4 83 -6 185 -4 162 3 185 1 185 -12 0 -9 5 -16 11 -16 5 0 8 -4 5 -9 -5 -7 -8 -808 -4 -883 1 -10 7 -14 16 -10 10 3 13 1 8 -6 -4 -7 -2 -12 4 -12 6 0 9 -4 6 -9 -3 -5 1 -12 10 -15 8 -3 12 -2 9 4 -3 6 -2 10 4 10 5 0 12 -4 15 -9 8 -13 85 -19 83 -6 -1 5 6 9 17 7 10 -2 15 1 12 6 -3 5 6 19 21 32 20 18 23 24 12 31 -11 7 -12 12 -1 29 14 22 16 33 5 27 -10 -6 -9 841 0 850 4 3 7 2 7 -4 0 -6 61 -9 175 -6 96 1 188 3 203 3 30 0 65 25 70 49 1 7 9 19 16 26 18 18 14 45 -12 88 -19 30 -30 37 -65 41 -23 3 -261 8 -528 11 -433 5 -488 4 -499 -10z m1072 -43 c26 -39 23 -88 -7 -117 -24 -25 -24 -25 -239 -25 l-215 0 -3 -471 c-3 -458 -4 -471 -23 -484 -11 -8 -25 -19 -31 -24 -7 -5 -14 -8 -16 -6 -2 2 -15 5 -28 7 -14 2 -36 11 -50 21 l-25 17 -3 469 -3 470 -221 1 c-216 1 -222 1 -237 23 -34 47 -26 111 16 136 12 7 201 11 543 10 l524 0 18 -27z"/><default:path d="M1762 5169 c-62 -18 -64 -110 -3 -126 14 -4 119 -7 233 -7 l208 -1 0 -467 0 -467 22 -21 c25 -23 66 -26 94 -6 18 14 19 34 24 488 l5 473 220 3 c192 2 222 5 236 20 30 31 32 58 5 89 l-24 28 -494 2 c-292 1 -506 -2 -526 -8z m1028 -29 c11 -11 20 -27 20 -35 0 -8 -9 -24 -20 -35 -19 -19 -33 -20 -245 -20 l-225 0 0 -479 c0 -427 -2 -480 -16 -485 -31 -12 -63 -6 -74 13 -6 13 -10 184 -10 488 l0 468 -227 -2 c-198 -2 -229 0 -245 14 -22 20 -23 51 -1 75 15 17 45 18 520 18 490 0 504 -1 523 -20z"/><default:path d="M2735 5100 c-3 -6 1 -7 9 -4 18 7 21 14 7 14 -6 0 -13 -4 -16 -10z"/><default:path d="M3685 5213 c-253 -2 -467 -6 -475 -10 -8 -3 -18 -5 -22 -5 -5 1 -8 -4 -8 -11 0 -8 -4 -7 -10 3 -8 12 -10 11 -10 -7 0 -12 -6 -28 -12 -35 -20 -20 -18 -46 5 -91 15 -28 31 -43 52 -49 17 -5 116 -10 221 -11 l191 -2 1 -375 c0 -206 -3 -396 -7 -422 -5 -28 -4 -45 1 -42 5 3 8 0 7 -7 -5 -25 12 -72 32 -90 15 -13 16 -19 7 -23 -9 -4 -9 -5 2 -5 29 2 41 -1 36 -9 -3 -5 22 -2 55 6 36 9 59 20 59 28 0 8 4 14 10 14 5 0 7 7 4 15 -4 8 -2 15 2 15 5 0 9 200 9 445 l0 445 125 2 c69 1 161 1 205 -1 74 -2 82 0 108 24 15 14 27 30 27 36 0 6 5 7 11 3 13 -8 10 85 -4 104 -6 8 -6 12 2 12 7 0 10 4 6 10 -3 5 -13 6 -22 3 -11 -4 -14 -3 -9 5 4 7 2 10 -7 6 -8 -3 -20 2 -27 11 -8 10 -27 14 -59 13 -25 -2 -253 -4 -506 -5z m598 -55 c25 -33 25 -73 0 -106 l-20 -27 -222 -3 -221 -2 0 -451 c0 -542 6 -512 -102 -534 -10 -2 -18 2 -18 8 0 6 -3 7 -6 4 -4 -4 -18 6 -30 21 l-24 27 0 463 0 462 -218 0 c-197 0 -221 2 -235 18 -38 42 -38 111 0 140 13 9 133 12 546 10 l530 -3 20 -27z"/><default:path d="M3212 5170 c-12 -5 -27 -21 -33 -34 -15 -33 5 -84 36 -92 12 -3 116 -6 231 -7 l209 -2 5 -473 c5 -454 6 -474 24 -488 28 -20 69 -17 94 6 l22 21 0 469 0 469 222 1 c149 0 226 4 235 12 44 36 38 89 -12 112 -29 14 -97 16 -522 15 -268 0 -498 -4 -511 -9z m1044 -35 c24 -36 6 -72 -38 -80 -18 -3 -124 -5 -236 -3 l-202 3 0 -468 c0 -304 -4 -475 -10 -488 -13 -24 -75 -27 -84 -3 -3 9 -6 227 -6 485 l0 469 -223 0 c-185 0 -226 3 -245 16 -27 19 -28 48 -2 74 19 19 33 20 525 20 l505 0 16 -25z"/><default:path d="M745 5187 c-46 -39 -43 -167 4 -167 13 0 14 -2 1 -9 -9 -7 -3 -9 23 -7 21 2 34 -1 30 -6 -3 -6 4 -7 18 -2 13 4 32 8 41 8 9 0 16 3 15 6 0 3 8 20 20 38 14 23 23 29 27 20 3 -7 4 -2 0 12 -3 14 -6 32 -7 40 -5 32 -37 78 -59 84 -46 12 -87 6 -113 -17z m133 -23 c28 -32 29 -83 1 -118 -45 -57 -160 -20 -159 51 1 88 101 130 158 67z"/><default:path d="M783 5170 c-68 -27 -48 -133 25 -133 42 0 72 28 72 68 0 49 -51 83 -97 65z m58 -20 c13 -7 19 -21 19 -44 0 -42 -20 -60 -59 -51 -38 8 -52 56 -25 86 19 21 36 24 65 9z"/><default:path d="M2722 4714 c-12 -8 -27 -12 -32 -9 -6 3 -10 1 -10 -5 0 -7 -10 -26 -22 -43 -12 -17 -17 -27 -10 -23 7 4 12 1 12 -9 0 -10 -5 -13 -12 -9 -8 5 -9 2 -4 -11 4 -10 7 -129 7 -264 0 -267 1 -276 57 -305 23 -12 80 -15 288 -15 371 -1 351 -18 353 314 1 127 3 247 4 267 1 23 -3 40 -10 43 -7 2 -13 10 -13 17 0 9 3 8 10 -2 13 -20 13 -4 -1 21 -5 11 -14 17 -20 14 -5 -4 -9 0 -9 7 0 18 1 18 -305 23 -224 4 -264 3 -283 -11z m580 -32 c23 -22 23 -27 26 -294 3 -292 -1 -322 -45 -339 -13 -5 -146 -9 -294 -9 l-270 0 -24 25 -25 24 0 278 c0 299 2 312 54 333 11 5 141 8 288 7 264 -2 268 -2 290 -25z"/><default:path d="M2716 4668 l-26 -23 -1 -274 c0 -244 2 -275 17 -292 16 -18 35 -19 295 -19 276 0 278 0 293 22 14 19 16 64 16 294 l0 273 -26 20 c-25 20 -39 21 -285 21 -253 0 -258 0 -283 -22z m562 -10 c19 -19 17 -551 -2 -567 -9 -8 -94 -11 -287 -9 l-274 3 -3 279 c-2 197 1 283 9 292 16 19 538 21 557 2z"/><default:path d="M2807 4383 c2 -104 3 -191 3 -195 0 -5 86 -8 190 -8 l190 0 0 195 0 195 -192 0 -193 0 2 -187z m363 -8 l0 -175 -169 0 -170 0 -3 143 c-2 78 -2 157 0 175 l3 32 170 0 169 0 0 -175z"/><default:path d="M2840 4376 l0 -155 151 -3 c83 -2 154 -1 158 2 3 3 6 74 6 158 l0 152 -157 0 -158 0 0 -154z m124 129 c14 -6 17 -5 12 3 -5 8 15 11 74 9 44 -1 80 -2 80 -2 1 0 3 -61 6 -136 4 -108 3 -136 -8 -137 -7 -1 -67 -2 -133 -3 l-120 -2 -7 49 c-9 69 -10 219 -1 228 9 9 69 3 97 -9z"/><default:path d="M4156 4704 c-32 -22 -53 -65 -41 -84 4 -6 3 -15 -1 -21 -4 -7 -7 -338 -7 -738 -1 -671 1 -728 17 -759 9 -18 24 -36 31 -39 8 -3 13 -9 10 -14 -3 -4 241 -7 542 -6 479 2 548 4 548 17 1 8 7 14 13 12 7 -1 12 3 11 10 -1 7 1 21 6 31 4 9 4 34 1 55 -3 20 -7 42 -8 49 -1 7 -5 10 -9 8 -3 -3 -12 2 -19 10 -7 8 -22 15 -34 15 -11 1 -217 2 -456 3 l-435 2 -2 690 c-2 380 -6 701 -10 715 -3 14 -5 29 -4 33 1 5 -3 6 -9 2 -5 -3 -10 -1 -10 6 0 7 -3 9 -7 6 -3 -4 -13 -1 -21 6 -24 19 -69 16 -106 -9z m128 -29 c13 -17 15 -117 16 -731 l0 -710 457 -2 c251 -1 465 -4 475 -8 27 -8 50 -60 43 -95 -4 -16 -18 -38 -32 -49 -25 -19 -40 -20 -545 -20 l-519 0 -24 25 -25 24 0 775 0 775 22 21 c12 11 28 20 35 20 8 0 12 4 9 9 -11 18 74 -15 88 -34z"/><default:path d="M4183 4680 c-12 -5 -24 -19 -28 -31 -4 -12 -7 -362 -7 -777 l0 -756 22 -18 c21 -17 55 -18 536 -18 l513 0 21 22 c27 29 25 64 -5 93 l-24 25 -461 0 -460 0 0 710 0 711 -26 24 c-28 26 -45 29 -81 15z m69 -27 c17 -15 18 -51 18 -735 l0 -718 469 0 c414 0 471 -2 485 -16 19 -18 21 -55 4 -72 -15 -15 -1024 -17 -1048 -2 -13 8 -15 104 -15 768 0 811 -1 792 48 792 11 0 29 -7 39 -17z"/><default:path d="M1716 4708 c3 -4 -4 -16 -16 -28 -23 -23 -23 -37 -21 -971 l2 -446 -43 -4 c-24 -2 -228 -4 -455 -4 -226 0 -406 -4 -400 -8 8 -6 4 -7 -8 -4 -58 12 -88 -109 -41 -168 l24 -30 541 -2 c320 -1 539 2 536 7 -3 5 3 14 14 19 11 6 23 20 26 31 4 11 11 18 16 15 8 -5 4 38 -7 73 -2 6 1 12 6 12 12 0 13 1159 1 1341 -5 95 -10 120 -28 142 -11 14 -23 23 -27 20 -3 -3 -6 -2 -6 4 0 5 -26 9 -59 9 -33 0 -57 -4 -55 -8z m132 -31 l22 -20 0 -774 0 -774 -25 -24 -24 -25 -525 0 -524 0 -27 32 c-22 26 -26 39 -21 66 3 19 13 43 22 53 16 18 40 19 485 19 l468 0 -1 708 c-1 523 2 714 11 730 13 24 65 43 96 35 11 -3 30 -15 43 -26z m39 -344 c-3 -10 -5 -2 -5 17 0 19 2 27 5 18 2 -10 2 -26 0 -35z m0 -450 c-3 -10 -5 -4 -5 12 0 17 2 24 5 18 2 -7 2 -21 0 -30z"/><default:path d="M1736 4667 l-26 -26 0 -711 0 -710 -459 0 c-449 0 -459 0 -485 -21 -33 -26 -35 -70 -4 -99 21 -20 32 -20 534 -20 478 0 513 1 534 18 l22 18 -1 650 c0 357 -1 701 -1 765 0 128 -6 145 -57 155 -26 5 -37 1 -57 -19z m89 -20 c13 -20 14 -119 12 -775 -2 -657 -4 -754 -17 -762 -24 -15 -1033 -13 -1048 2 -17 17 -15 54 4 72 14 14 71 16 485 16 l469 0 0 717 c0 653 1 718 17 735 22 25 59 23 78 -5z"/><default:path d="M2392 4690 c0 -19 2 -27 5 -17 2 9 2 25 0 35 -3 9 -5 1 -5 -18z"/><default:path d="M2661 4704 c0 -11 3 -14 6 -6 3 7 2 16 -1 19 -3 4 -6 -2 -5 -13z"/><default:path d="M2393 4600 c0 -25 2 -35 4 -22 2 12 2 32 0 45 -2 12 -4 2 -4 -23z"/><default:path d="M2392 4520 c0 -14 2 -19 5 -12 2 6 2 18 0 25 -3 6 -5 1 -5 -13z"/><default:path d="M2391 4274 c0 -11 3 -14 6 -6 3 7 2 16 -1 19 -3 4 -6 -2 -5 -13z"/><default:path d="M757 4223 c3 -7 0 -13 -6 -13 -6 0 -11 6 -11 13 0 8 -3 7 -9 -3 -6 -8 -8 -17 -5 -21 2 -4 0 -10 -6 -14 -26 -16 1 -145 31 -145 6 0 7 -4 4 -10 -3 -5 -1 -10 5 -10 6 0 8 -5 3 -12 -4 -8 2 -7 17 3 15 9 42 14 65 13 29 -2 35 0 20 6 -19 8 -19 9 3 9 15 1 22 7 22 22 0 11 5 17 10 14 6 -4 10 -3 9 2 -1 4 3 21 9 36 15 35 15 40 2 32 -6 -3 -10 4 -10 16 0 12 -12 33 -27 48 -23 21 -38 26 -79 26 -38 0 -50 -3 -47 -12z m121 -38 c74 -87 -48 -197 -129 -116 -40 40 -39 81 3 125 28 30 35 32 67 25 20 -4 46 -20 59 -34z"/><default:path d="M766 4179 c-72 -57 16 -157 92 -103 32 22 30 76 -4 103 -15 12 -34 21 -44 21 -10 0 -29 -9 -44 -21z m83 -13 c20 -24 9 -69 -19 -83 -32 -16 -64 3 -68 41 -4 35 14 56 48 56 15 0 33 -6 39 -14z"/><default:path d="M5150 4226 c-14 -8 -28 -12 -32 -10 -5 3 -8 -2 -8 -10 0 -9 -4 -16 -10 -16 -5 0 -10 -9 -10 -21 0 -11 -4 -18 -9 -14 -6 3 -7 -9 -4 -31 7 -41 47 -91 70 -86 8 2 12 -1 9 -6 -3 -5 5 -12 19 -14 14 -3 25 -1 25 3 0 5 9 9 20 9 12 0 32 11 45 25 20 19 25 34 25 74 0 48 -2 53 -42 81 -46 33 -61 36 -98 16z m105 -37 c30 -29 28 -104 -4 -130 -43 -35 -120 -20 -140 29 -30 72 19 139 94 127 16 -3 39 -15 50 -26z"/><default:path d="M5146 4179 c-50 -39 -22 -119 43 -119 66 0 96 79 45 119 -15 12 -34 21 -44 21 -10 0 -29 -9 -44 -21z m83 -13 c18 -21 9 -66 -14 -82 -29 -19 -69 2 -73 39 -4 36 13 57 48 57 15 0 33 -6 39 -14z"/><default:path d="M4092 3780 c0 -14 2 -19 5 -12 2 6 2 18 0 25 -3 6 -5 1 -5 -13z"/><default:path d="M2243 3749 c-18 -5 -33 -14 -33 -20 0 -6 -4 -8 -9 -5 -11 7 -28 -14 -28 -34 0 -8 -2 -19 -3 -25 -1 -5 -2 -19 -1 -30 1 -13 7 -6 16 20 11 30 11 41 2 48 -8 6 -8 7 3 4 8 -2 29 2 47 10 26 10 178 13 778 13 l746 0 24 -25 c14 -13 25 -29 25 -35 0 -6 5 -8 10 -5 13 8 13 7 -5 -47 -11 -30 -25 -49 -41 -57 -18 -8 -237 -11 -781 -11 l-757 0 -33 32 c-18 18 -33 27 -33 20 0 -7 5 -12 11 -12 6 0 8 -7 5 -17 -4 -10 -4 -14 0 -10 4 3 15 -2 24 -13 16 -19 34 -19 747 -17 402 1 729 -2 726 -6 -2 -4 8 -4 24 0 15 4 40 7 55 7 16 -1 25 3 21 9 -4 6 0 8 10 4 11 -4 14 -2 10 9 -3 7 0 14 6 14 6 0 11 7 11 16 0 8 3 13 8 10 16 -10 10 72 -7 91 -10 10 -15 25 -13 33 3 8 1 12 -3 7 -5 -4 -18 -1 -29 5 -16 10 -186 13 -763 13 -407 0 -739 3 -736 8 2 4 3 7 1 6 -2 0 -18 -5 -35 -10z"/><default:path d="M2226 3689 c-33 -26 -35 -70 -4 -99 22 -20 31 -20 779 -20 l758 0 21 22 c26 28 26 58 -1 92 l-20 26 -753 0 c-747 0 -754 0 -780 -21z m1544 -18 c13 -26 13 -43 -3 -65 -12 -16 -61 -17 -766 -16 -533 0 -758 4 -768 11 -18 15 -16 54 3 73 14 14 97 16 769 16 736 0 755 0 765 -19z"/><default:path d="M1405 3600 c3 -5 8 -10 11 -10 2 0 4 5 4 10 0 6 -5 10 -11 10 -5 0 -7 -4 -4 -10z"/><default:path d="M2726 3259 c3 -6 -98 -8 -246 -7 l-251 3 -33 -33 -34 -32 -1 -274 c0 -263 6 -336 32 -336 4 0 5 -5 2 -11 -4 -6 -1 -9 6 -8 8 1 22 -1 31 -5 10 -5 36 -6 58 -4 22 2 40 0 40 -4 0 -5 11 -8 25 -8 14 0 25 3 25 8 0 9 100 7 130 -3 12 -4 27 -1 35 5 8 7 15 8 15 3 0 -6 60 -8 158 -6 332 8 402 8 402 1 0 -4 20 -6 45 -3 82 7 200 7 219 -1 11 -4 27 -2 37 5 13 8 19 8 19 0 0 -7 11 -8 33 -3 17 4 88 7 157 8 69 1 130 4 137 9 6 4 14 3 18 -3 10 -17 22 -3 29 35 4 20 10 34 14 31 4 -2 6 123 4 277 -3 302 -4 318 -11 312 -2 -3 -12 2 -21 10 -20 18 -53 27 -95 26 -24 -1 -27 1 -15 10 12 8 9 9 -10 3 -14 -4 -127 -8 -252 -8 -126 -1 -228 -5 -228 -10 0 -4 -8 -5 -17 -2 -10 4 -14 4 -10 0 4 -4 -4 -19 -17 -33 -23 -24 -24 -30 -15 -71 6 -25 12 -52 13 -60 2 -8 13 -17 26 -18 14 -2 19 -7 12 -11 -6 -4 83 -7 198 -8 115 -1 214 -4 220 -8 13 -8 13 -215 1 -249 -7 -15 -6 -26 0 -28 5 -2 -269 -2 -608 -1 -340 2 -622 5 -628 8 -6 3 -5 7 3 11 6 3 9 11 5 17 -5 7 -8 65 -8 129 l0 118 60 1 c33 0 119 0 190 0 74 0 142 4 158 11 23 9 31 8 39 -3 8 -12 9 -11 5 1 -3 9 2 25 10 35 15 19 15 19 8 -4 -5 -17 -4 -21 5 -16 6 4 9 17 6 30 -4 14 -1 25 7 28 9 3 9 9 0 24 -9 15 -9 23 0 32 8 8 6 11 -7 11 -9 0 -15 3 -12 8 10 16 -21 40 -71 54 -29 9 -50 12 -47 7z m24 -19 c0 -5 11 -10 25 -10 57 0 87 -91 46 -141 -19 -24 -22 -24 -240 -27 l-221 -3 0 -160 0 -159 640 0 640 0 0 160 0 160 -213 0 c-231 0 -247 4 -268 57 -11 30 3 84 28 104 11 10 78 13 292 11 152 -1 284 -5 294 -8 40 -13 47 -59 47 -331 0 -214 -3 -262 -15 -280 -8 -12 -12 -30 -9 -40 3 -10 2 -14 -3 -8 -5 7 -281 10 -791 10 l-783 0 -19 25 c-18 23 -20 44 -20 302 l0 277 24 28 24 28 251 0 c138 0 251 3 251 8 0 4 5 7 10 7 6 0 10 -4 10 -10z m-133 -686 c-3 -3 -12 -4 -19 -1 -8 3 -5 6 6 6 11 1 17 -2 13 -5z"/><default:path d="M2225 3204 c-19 -14 -20 -28 -23 -282 -2 -147 0 -277 3 -290 12 -47 23 -48 775 -46 388 1 722 3 743 3 23 1 45 9 57 21 19 19 20 33 20 290 l0 271 -25 24 -24 25 -258 0 c-285 0 -301 -3 -317 -58 -8 -28 -6 -36 14 -57 l23 -25 224 0 223 0 0 -175 0 -175 -660 0 -660 0 0 175 0 175 216 0 c133 0 223 4 235 11 31 16 42 55 24 88 -8 16 -22 31 -30 35 -9 3 -134 6 -278 6 -218 -1 -265 -3 -282 -16z m570 -20 c18 -18 13 -63 -8 -76 -7 -4 -114 -8 -239 -8 l-228 0 0 -195 0 -195 680 0 680 0 0 195 0 195 -233 0 c-246 0 -257 2 -257 46 0 52 10 54 300 54 256 0 270 -1 280 -19 13 -25 13 -540 0 -561 -8 -13 -105 -15 -756 -18 -656 -2 -750 0 -771 13 l-23 15 0 266 c0 164 4 273 10 285 10 18 24 19 280 19 236 0 271 -2 285 -16z"/><default:path d="M1901 3154 c0 -11 3 -14 6 -6 3 7 2 16 -1 19 -3 4 -6 -2 -5 -13z"/><default:path d="M2392 2900 c0 -14 2 -19 5 -12 2 6 2 18 0 25 -3 6 -5 1 -5 -13z"/><default:path d="M273 2761 c1 -4 -8 -17 -20 -31 -23 -23 -27 -38 -24 -72 1 -10 -2 -18 -8 -18 -15 0 -13 -2447 1 -2475 6 -11 18 -25 27 -32 14 -11 14 -12 1 -13 -8 -1 -4 -6 10 -11 40 -16 5460 -18 5460 -1 0 6 7 12 15 12 8 0 23 12 32 27 17 26 18 98 18 1283 0 1239 0 1255 -20 1282 -11 15 -26 28 -33 28 -7 0 -10 5 -6 12 4 6 3 8 -3 5 -6 -4 -24 -2 -41 3 -20 5 -34 5 -38 -1 -3 -5 -9 -7 -14 -4 -5 3 -11 -4 -15 -15 -4 -11 -10 -18 -14 -15 -4 2 -14 -7 -22 -22 -11 -20 -14 -71 -12 -225 2 -184 1 -199 -17 -208 -23 -13 -33 -13 -25 -1 6 10 -834 6 -866 -4 -11 -4 -17 -10 -14 -15 3 -5 -3 -11 -13 -14 -10 -3 -22 -18 -28 -33 -6 -18 -10 -214 -9 -538 1 -569 -1 -547 71 -581 44 -21 91 -6 122 39 l22 33 0 447 c0 286 4 447 10 448 6 1 21 1 35 1 14 0 180 0 369 -1 l345 -1 -2 -377 -2 -378 -205 -3 c-113 -1 -212 -5 -220 -9 -8 -3 -19 -5 -23 -4 -5 1 -5 -3 -2 -9 4 -6 0 -19 -8 -28 -14 -16 -19 -28 -33 -84 -4 -19 -3 -20 6 -8 10 12 11 11 7 -8 -3 -12 -2 -20 3 -17 11 7 41 -30 33 -40 -5 -4 1 -5 11 -1 11 4 28 0 41 -8 13 -8 25 -12 29 -9 3 3 87 7 186 7 138 1 181 -1 184 -11 3 -7 2 -13 -2 -13 -4 0 -7 -167 -7 -370 l1 -370 -378 0 -378 0 0 209 c0 138 -4 212 -11 216 -6 4 -8 13 -5 21 3 9 0 11 -11 7 -12 -5 -15 -2 -10 10 3 9 1 19 -5 23 -7 4 -8 3 -4 -4 4 -7 1 -12 -9 -12 -9 0 -14 3 -12 8 3 4 -13 8 -34 9 -51 3 -42 -12 11 -21 65 -10 70 -29 70 -276 l0 -210 400 0 400 0 0 400 0 401 -199 -3 c-110 -2 -197 0 -194 5 2 4 -9 7 -26 7 -64 0 -94 92 -46 144 l24 26 221 0 220 0 0 403 0 402 -400 0 -400 0 0 -463 0 -464 -29 -29 c-31 -31 -59 -36 -94 -17 -52 28 -50 1 -51 570 l-1 530 28 24 28 24 460 0 459 0 0 219 c0 206 1 220 21 245 23 29 73 35 112 15 29 -16 37 -28 37 -62 0 -19 4 -26 12 -21 7 5 8 3 2 -7 -5 -8 -9 -547 -9 -1239 0 -1277 1 -1258 -41 -1274 -29 -11 -5433 -7 -5454 4 -10 5 -23 25 -29 42 -7 23 -10 414 -8 1275 l2 1241 24 26 c35 37 101 37 130 0 20 -25 21 -39 21 -245 l0 -218 465 -3 c453 -3 465 -3 485 -24 20 -20 21 -29 21 -554 l0 -533 -27 -24 c-34 -29 -88 -23 -121 13 l-23 25 0 462 0 462 -400 0 -400 0 0 -402 0 -403 219 0 c219 0 220 0 246 -24 23 -21 26 -31 23 -74 -2 -28 -5 -49 -7 -47 -2 3 -13 -2 -25 -10 -11 -8 -28 -15 -38 -15 -10 0 -18 -5 -18 -11 0 -5 -4 -8 -10 -4 -5 3 -95 7 -200 10 l-190 4 0 -405 0 -404 400 0 400 0 0 213 c0 188 2 215 19 242 20 35 65 44 113 24 41 -17 47 -57 43 -282 l-3 -197 1619 0 1619 0 -4 148 c-2 81 -1 184 1 228 5 73 7 83 29 94 22 12 24 30 3 30 -6 0 -7 -5 -3 -12 5 -8 2 -9 -12 -4 -10 4 -15 4 -12 0 4 -3 1 -12 -6 -19 -15 -16 -22 -106 -21 -302 l0 -143 -205 2 c-113 1 -247 -2 -299 -7 -55 -4 -92 -4 -88 1 3 5 -33 9 -79 9 -46 0 -84 -4 -84 -8 0 -5 -5 -5 -12 -1 -10 6 -495 10 -663 5 -81 -3 -709 -4 -975 -1 -377 3 -739 0 -754 -6 -23 -9 -28 27 -30 233 -1 153 -4 196 -15 202 -8 5 -10 14 -6 22 5 8 5 11 0 7 -5 -5 -15 2 -23 13 -13 18 -22 21 -65 16 -43 -4 -56 -10 -79 -38 -28 -33 -28 -33 -30 -199 -2 -267 1 -245 -28 -247 -49 -3 -139 -4 -404 -4 -148 0 -273 -2 -279 -6 -6 -3 -7 -1 -3 5 4 7 3 12 -3 12 -5 0 -12 -6 -14 -12 -4 -10 -6 -10 -6 0 -1 7 -4 11 -9 9 -4 -3 -6 49 -6 115 1 72 -2 115 -7 107 -6 -10 -9 -3 -9 21 0 19 4 30 8 23 4 -6 6 100 5 237 -2 233 -2 248 16 253 33 8 346 6 361 -3 16 -10 38 0 75 34 21 19 25 32 25 77 -1 32 -7 62 -15 73 -8 11 -15 16 -15 10 0 -5 -5 -2 -10 6 -8 12 -46 16 -224 18 l-214 3 0 360 c1 198 -2 362 -5 365 -3 3 1 13 9 22 11 14 32 17 107 16 50 0 216 -1 369 -2 l276 -2 1 -439 c0 -254 5 -449 10 -464 5 -14 7 -28 4 -31 -4 -3 1 -6 9 -6 9 0 21 -7 29 -16 7 -8 21 -13 31 -10 16 4 17 2 7 -10 -7 -9 -8 -14 -1 -14 6 0 14 5 17 10 3 6 17 10 30 10 32 0 75 53 75 93 0 18 4 49 9 69 5 21 6 38 2 38 -4 0 -8 207 -8 459 0 451 -1 460 -21 489 -15 20 -33 31 -59 35 -45 8 -793 9 -842 2 -21 -3 -38 0 -42 7 -4 6 -8 99 -9 206 -1 201 -6 229 -48 271 -14 15 -113 25 -109 12z m3280 -2458 c-7 -2 -19 -2 -25 0 -7 3 -2 5 12 5 14 0 19 -2 13 -5z"/><default:path d="M768 2750 c-42 -17 -62 -56 -55 -108 7 -53 12 -70 22 -79 4 -4 5 -2 1 5 -4 6 -3 12 2 12 6 0 12 -7 16 -15 4 -13 65 -14 455 -12 247 1 453 -2 457 -6 5 -5 9 -320 9 -702 0 -542 3 -697 13 -706 6 -7 12 -17 12 -22 0 -4 -6 -5 -12 -1 -9 5 -9 2 1 -9 15 -18 26 -23 16 -7 -3 6 -2 10 3 10 14 0 33 -26 25 -33 -12 -13 13 -7 26 6 9 7 11 7 8 1 -4 -7 0 -15 9 -18 21 -8 26 -8 20 3 -3 5 4 12 17 15 33 9 62 37 74 72 7 20 11 177 11 450 0 230 0 484 1 564 0 271 -5 489 -12 496 -4 4 -7 15 -7 25 0 10 -11 26 -25 37 -13 11 -21 22 -18 26 3 3 -2 6 -13 6 -10 0 -30 3 -43 7 -18 5 -22 3 -16 -7 6 -9 4 -11 -5 -5 -7 4 -226 9 -485 9 -392 1 -478 -1 -507 -14z m1084 -41 c19 -26 20 -47 19 -795 l-1 -769 -25 -24 c-33 -34 -87 -32 -123 3 l-27 25 1 710 2 711 -463 0 c-449 0 -463 1 -488 20 -22 18 -25 26 -22 68 7 87 -27 83 578 80 l530 -3 19 -26z m35 -531 c-2 -13 -4 -3 -4 22 0 25 2 35 4 23 2 -13 2 -33 0 -45z m0 -85 c-3 -10 -5 -4 -5 12 0 17 2 24 5 18 2 -7 2 -21 0 -30z m0 -165 c-3 -7 -5 -2 -5 12 0 14 2 19 5 13 2 -7 2 -19 0 -25z"/><default:path d="M790 2723 c-30 -11 -50 -37 -50 -63 0 -15 8 -37 18 -49 17 -21 22 -21 482 -24 l465 -2 5 -710 c4 -551 8 -715 18 -732 23 -42 91 -42 113 -1 12 21 14 1523 3 1552 -13 33 -64 36 -553 35 -267 0 -493 -3 -501 -6z m1025 -27 c18 -13 19 -41 23 -766 3 -674 2 -754 -13 -776 -20 -31 -59 -32 -79 -2 -14 20 -16 107 -16 738 l0 715 -472 0 c-502 0 -498 0 -498 47 0 12 7 30 17 40 15 17 44 18 518 18 412 0 505 -2 520 -14z"/><default:path d="M4198 2762 c-16 -2 -28 -8 -28 -14 0 -6 -3 -9 -6 -5 -11 11 -43 -33 -50 -70 -8 -42 -12 -727 -4 -693 3 12 5 -174 5 -413 l0 -434 30 -26 c17 -15 41 -27 55 -28 l25 -1 -25 -8 c-17 -6 -20 -8 -7 -9 32 -2 96 38 114 72 16 29 17 88 18 722 l0 690 160 1 c88 1 292 3 452 4 161 0 295 5 298 10 3 5 12 7 20 4 16 -7 31 19 21 35 -4 6 -15 2 -26 -9 -19 -19 -36 -20 -485 -20 l-465 0 0 -713 0 -714 -25 -23 c-14 -13 -40 -25 -59 -27 -28 -3 -39 2 -60 28 l-26 31 0 769 0 770 25 24 24 25 524 0 c496 0 526 -1 548 -19 16 -13 23 -30 25 -60 2 -55 14 -66 14 -14 0 42 -22 98 -33 86 -4 -3 -7 -1 -7 6 0 7 -4 10 -9 7 -5 -4 -11 -1 -13 4 -2 8 -164 12 -503 13 -275 1 -512 1 -527 -1z m1072 -182 c0 -5 -5 -10 -11 -10 -5 0 -7 5 -4 10 3 6 8 10 11 10 2 0 4 -4 4 -10z"/><default:path d="M292 2720 c-12 -5 -27 -21 -32 -36 -7 -17 -9 -461 -8 -1271 l3 -1245 24 -19 c23 -19 80 -19 2720 -19 2643 0 2696 1 2721 20 l25 19 3 1246 c2 1362 5 1294 -54 1309 -20 5 -35 2 -53 -12 l-26 -19 -5 -229 -5 -229 -467 -3 -467 -2 -20 -26 c-21 -26 -21 -37 -21 -526 0 -418 2 -504 15 -527 23 -46 71 -55 105 -21 19 19 20 33 20 490 l0 470 420 0 420 0 0 -420 0 -420 -223 0 c-252 0 -267 -4 -267 -65 0 -24 7 -39 26 -54 25 -20 39 -21 245 -21 l219 0 -2 -417 -3 -418 -415 0 -415 0 -2 225 c-3 215 -4 226 -24 243 -32 26 -74 22 -98 -9 -20 -25 -21 -39 -21 -245 l0 -219 -1630 0 -1630 0 0 219 c0 206 -1 220 -21 245 -24 31 -66 35 -98 9 -21 -17 -22 -26 -24 -243 l-2 -225 -415 0 -415 0 -3 418 -2 417 219 0 c206 0 220 1 245 21 32 25 35 70 6 99 -19 19 -33 20 -245 20 l-225 0 0 420 0 420 418 -2 417 -3 5 -469 5 -469 27 -20 c23 -17 33 -19 55 -11 53 18 53 20 53 560 0 492 0 502 -21 528 l-20 26 -467 2 -467 3 -3 226 c-2 200 -4 228 -20 241 -24 22 -53 28 -80 18z m68 -25 c8 -10 12 -82 13 -246 l2 -233 474 -1 c451 -1 474 -2 487 -20 11 -15 14 -112 14 -524 0 -455 -2 -506 -17 -523 -19 -21 -56 -24 -72 -4 -8 9 -11 154 -13 490 l-1 476 -438 0 -438 0 2 -437 2 -438 229 -2 c125 -1 234 -4 242 -7 17 -7 19 -67 2 -84 -9 -9 -77 -12 -245 -12 l-232 0 -1 -440 0 -439 437 2 438 2 2 215 c1 118 3 224 3 236 0 11 11 26 25 34 20 11 28 10 50 -4 l25 -16 0 -235 0 -235 1650 0 1650 0 0 233 c0 213 2 235 18 250 19 17 57 16 76 -3 7 -7 11 -91 11 -243 l0 -232 435 0 435 0 2 438 2 437 -232 0 c-168 0 -236 3 -245 12 -10 10 -18 73 -9 80 1 1 110 5 242 8 l240 5 3 438 2 437 -437 0 -438 0 1 -468 c0 -503 0 -512 -51 -512 -56 0 -55 -14 -55 539 0 397 3 511 13 525 12 16 47 17 487 19 l475 2 1 234 c0 217 2 234 19 247 25 18 44 18 67 -3 17 -15 18 -68 18 -1264 0 -1121 -2 -1249 -16 -1263 -14 -14 -274 -16 -2714 -16 -2440 0 -2700 2 -2714 16 -14 14 -16 142 -16 1261 0 1146 1 1248 17 1265 19 22 56 24 73 3z"/><default:path d="M4681 2144 c0 -11 3 -14 6 -6 3 7 2 16 -1 19 -3 4 -6 -2 -5 -13z"/><default:path d="M4183 2720 c-12 -5 -25 -19 -29 -32 -12 -40 -8 -1522 5 -1546 24 -44 91 -40 116 8 13 25 15 123 15 733 l0 705 468 1 c461 1 467 1 485 22 24 30 21 66 -8 94 l-24 25 -503 -1 c-277 0 -513 -4 -525 -9z m1039 -27 c20 -18 23 -49 8 -73 -8 -13 -73 -15 -485 -15 l-475 0 0 -719 c0 -655 -1 -721 -17 -738 -22 -25 -59 -23 -77 4 -14 20 -16 110 -16 770 0 735 0 748 20 768 19 19 33 20 522 20 453 0 503 -2 520 -17z"/><default:path d="M4202 1465 c0 -16 2 -22 5 -12 2 9 2 23 0 30 -3 6 -5 -1 -5 -18z"/><default:path d="M1453 2543 c9 -2 23 -2 30 0 6 3 -1 5 -18 5 -16 0 -22 -2 -12 -5z"/><default:path d="M1568 2533 c6 -2 18 -2 25 0 6 3 1 5 -13 5 -14 0 -19 -2 -12 -5z"/><default:path d="M2428 2533 c7 -3 16 -2 19 1 4 3 -2 6 -13 5 -11 0 -14 -3 -6 -6z"/><default:path d="M2958 2533 c12 -2 32 -2 45 0 12 2 2 4 -23 4 -25 0 -35 -2 -22 -4z"/><default:path d="M3568 2533 c6 -2 18 -2 25 0 6 3 1 5 -13 5 -14 0 -19 -2 -12 -5z"/><default:path d="M2305 2270 c-70 -8 -105 -18 -105 -32 0 -6 7 -7 18 -2 9 5 359 10 778 12 751 2 761 2 787 -18 47 -37 42 -113 -11 -144 -8 -5 -354 -9 -772 -9 -698 -1 -760 1 -784 16 -32 21 -43 61 -28 100 6 17 9 35 5 40 -9 14 -25 -29 -28 -76 -2 -25 0 -35 8 -30 6 4 8 0 4 -10 -4 -12 7 -22 46 -41 l52 -25 735 4 c721 3 790 6 790 35 0 6 5 8 10 5 6 -3 10 3 10 15 0 12 3 19 8 17 4 -3 8 15 9 39 2 34 -1 44 -13 44 -10 0 -14 6 -10 15 3 8 2 14 -2 13 -4 -1 -20 4 -35 10 -16 7 -33 12 -38 12 -5 0 -9 4 -9 8 0 5 -15 7 -32 5 -46 -4 -1266 -4 -1303 1 -16 2 -57 0 -90 -4z"/><default:path d="M2222 2207 c-29 -30 -28 -62 3 -92 l24 -25 751 0 751 0 24 25 c30 29 32 68 5 95 -20 20 -33 20 -778 20 l-759 0 -21 -23z m1545 -9 c18 -14 16 -53 -3 -72 -14 -14 -96 -16 -752 -16 -405 0 -747 3 -760 6 -26 7 -40 49 -25 73 9 14 69 17 534 21 663 6 989 3 1006 -12z"/><default:path d="M778 1772 c-45 -6 -71 -48 -66 -108 5 -59 22 -81 73 -95 42 -12 100 9 110 40 3 12 10 21 15 21 5 0 7 21 5 46 -2 36 -9 52 -30 70 -16 13 -33 24 -39 25 -6 0 -18 1 -26 3 -8 1 -27 0 -42 -2z m72 -17 c10 -3 27 -20 38 -37 15 -24 18 -38 11 -62 -12 -41 -53 -76 -90 -76 -38 0 -89 48 -89 84 0 30 19 76 32 76 5 0 7 3 5 8 -6 9 69 15 93 7z"/><default:path d="M760 1720 c-42 -42 -8 -120 51 -120 61 0 95 91 47 124 -31 22 -74 20 -98 -4z m98 -44 c4 -35 -14 -56 -48 -56 -35 0 -52 21 -48 57 7 61 89 60 96 -1z"/><default:path d="M2790 1769 c-52 -3 -90 -6 -85 -7 6 -2 130 -2 277 -2 147 0 279 -2 293 -6 51 -13 55 -39 55 -328 0 -231 4 -288 21 -272 2 3 2 124 -1 269 -3 152 -1 263 4 260 5 -3 6 0 4 8 -3 8 -10 13 -16 12 -6 -2 -9 4 -6 12 4 8 1 15 -7 15 -7 0 -9 3 -6 7 4 3 -5 12 -19 19 -29 15 -346 23 -514 13z"/><default:path d="M2197 1744 c-10 -13 -23 -22 -28 -19 -6 4 -8 -168 -7 -458 l3 -465 -87 -7 c-48 -4 -119 -4 -157 0 -117 12 -130 12 -124 1 3 -6 0 -5 -8 1 -16 16 -33 17 -23 2 4 -8 0 -9 -15 -4 -15 4 -23 1 -27 -10 -4 -9 -12 -14 -18 -12 -13 5 -16 -7 -19 -82 -1 -32 2 -56 9 -58 8 -2 10 12 7 44 -4 38 -1 53 15 73 l20 25 221 3 221 3 -2 457 -3 457 29 33 c48 53 121 42 146 -22 6 -17 10 -190 10 -477 l0 -449 205 0 c255 0 275 -7 275 -94 0 -40 -32 -76 -68 -76 -713 -3 -1025 0 -1037 10 -7 6 -20 7 -30 4 -12 -5 -3 -11 32 -23 39 -14 77 -17 201 -14 108 3 158 1 168 -8 9 -7 18 -8 27 -2 17 14 325 17 361 3 19 -7 31 -7 36 -1 3 6 48 10 103 10 53 -1 95 -5 92 -10 -3 -4 8 -3 25 3 17 5 33 8 37 5 3 -3 20 8 39 25 24 22 34 40 34 61 0 35 -28 97 -47 104 -7 3 -11 9 -8 13 3 5 -87 7 -200 7 -113 -1 -205 2 -205 6 0 5 -4 6 -9 3 -16 -10 -18 48 -16 464 2 228 -1 424 -6 436 -18 50 -40 64 -99 64 -47 -1 -58 -4 -73 -26z"/><default:path d="M3675 1760 c4 -7 -3 -9 -18 -6 -20 3 -24 1 -20 -14 3 -10 -1 -23 -9 -30 -10 -10 -13 -97 -10 -460 l2 -448 -102 -7 c-57 -4 -149 -4 -206 -1 -87 4 -106 2 -123 -12 -11 -9 -25 -17 -32 -17 -7 0 -12 -9 -12 -20 0 -11 -3 -25 -8 -32 -4 -6 -3 -14 1 -17 5 -3 7 -16 5 -28 -4 -21 3 -32 49 -74 6 -5 25 -8 42 -6 25 3 28 1 16 -8 -12 -10 -12 -11 5 -4 11 4 244 8 518 9 331 0 500 4 505 11 4 6 14 13 22 16 20 7 26 114 8 136 -7 8 -13 21 -14 29 -3 19 -14 30 -14 15 0 -7 -5 -12 -11 -12 -5 0 -8 4 -5 8 3 5 -89 8 -204 8 -114 -1 -211 2 -215 5 -3 4 -6 213 -7 465 0 253 -3 464 -5 471 -3 6 -10 10 -18 7 -7 -3 -15 2 -18 10 -5 12 -21 16 -67 16 -40 0 -59 -4 -55 -10z m108 -12 c-2 -5 0 -8 5 -8 28 0 32 -60 32 -505 l0 -454 221 -3 221 -3 20 -25 c16 -19 19 -35 16 -72 -3 -29 -1 -49 6 -52 6 -2 2 -4 -9 -4 -11 0 -37 -5 -58 -10 -22 -6 -238 -9 -539 -8 -498 2 -501 3 -518 24 -10 12 -19 19 -21 17 -10 -10 -2 73 9 92 23 41 44 45 263 43 l209 -1 -2 460 -3 460 33 31 c28 26 39 30 76 28 24 -2 42 -6 39 -10z"/><default:path d="M3680 1720 c-19 -19 -20 -33 -20 -490 l0 -470 -223 0 c-223 0 -224 0 -246 -24 -18 -19 -21 -31 -16 -55 14 -63 -1 -61 556 -61 478 0 508 1 530 18 28 23 30 73 4 102 -17 19 -30 20 -242 20 l-223 0 0 470 0 469 -22 21 c-28 26 -72 26 -98 0z m88 -12 c9 -9 12 -132 12 -491 l0 -478 23 1 c12 1 118 2 235 1 l212 -1 12 -25 c9 -19 8 -29 -6 -50 l-16 -25 -510 0 c-449 0 -510 2 -524 16 -19 18 -20 38 -6 65 10 18 24 19 245 19 l235 0 0 478 c0 358 3 481 12 490 7 7 24 12 38 12 14 0 31 -5 38 -12z"/><default:path d="M5114 1748 c-19 -23 -44 -72 -44 -86 0 -4 5 0 11 8 8 12 9 9 5 -11 -4 -20 1 -34 26 -59 26 -27 39 -33 73 -33 42 0 102 32 88 47 -3 3 -1 6 5 6 8 0 12 18 12 50 0 70 -31 100 -104 100 -42 0 -56 -4 -72 -22z m144 -22 c31 -42 28 -81 -7 -117 -37 -37 -79 -38 -120 -3 -40 34 -42 79 -5 124 23 27 33 31 68 29 32 -3 46 -10 64 -33z"/><default:path d="M5142 1724 c-15 -10 -22 -25 -22 -49 0 -67 74 -99 118 -52 61 64 -23 153 -96 101z m86 -16 c7 -7 12 -24 12 -38 0 -33 -17 -50 -51 -50 -43 0 -68 50 -40 83 16 20 62 22 79 5z"/><default:path d="M2673 1753 c4 -3 0 -17 -8 -30 -13 -19 -13 -23 -2 -23 8 0 19 11 25 24 11 24 7 36 -11 36 -6 0 -7 -3 -4 -7z"/><default:path d="M2222 1720 l-22 -21 0 -469 0 -470 -220 0 -221 0 -25 -26 c-30 -29 -27 -68 9 -96 20 -16 64 -18 524 -18 276 0 509 3 518 6 22 9 46 59 38 81 -18 53 -20 53 -260 53 l-223 0 0 470 c0 457 -1 471 -20 490 -26 26 -70 26 -98 0z m96 -499 l2 -481 228 0 c125 0 232 -4 238 -8 20 -14 25 -45 9 -68 l-15 -24 -507 0 c-457 0 -508 2 -525 17 -21 19 -23 41 -4 65 12 16 37 18 244 19 l232 0 2 482 3 481 25 13 c20 10 29 10 45 -1 20 -13 20 -25 23 -495z"/><default:path d="M2707 1722 c-15 -16 -17 -51 -17 -293 1 -228 3 -277 16 -294 14 -19 28 -20 282 -23 260 -3 269 -2 295 18 l27 21 0 273 c0 230 -2 275 -16 294 -15 22 -17 22 -293 22 -257 0 -279 -1 -294 -18z m581 -284 c2 -241 0 -278 -14 -292 -13 -14 -51 -16 -270 -16 -157 0 -263 4 -275 10 -18 10 -19 24 -19 280 0 147 3 276 6 284 6 15 38 16 288 14 l281 -3 3 -277z"/><default:path d="M2808 1426 l3 -193 189 -1 190 -2 0 195 0 195 -192 0 -193 0 3 -194z m362 -1 l0 -175 -170 0 -170 0 0 175 0 175 170 0 170 0 0 -175z"/><default:path d="M2840 1425 l0 -155 161 0 c143 0 160 2 155 16 -3 9 -6 78 -6 155 l0 139 -155 0 -155 0 0 -155z m300 113 c0 -19 -2 -20 -10 -8 -7 11 -9 7 -5 -15 2 -16 7 -74 10 -127 l5 -98 -140 0 -140 0 1 134 0 134 140 1 c139 2 139 2 139 -21z"/><default:path d="M2654 1574 c6 -92 5 -119 -6 -125 -10 -7 -10 -9 0 -9 7 0 12 -13 12 -29 0 -16 -6 -31 -12 -34 -10 -4 -10 -7 0 -18 13 -14 17 -61 6 -72 -10 -10 -10 -97 0 -97 5 0 3 -7 -4 -15 -7 -8 -8 -15 -4 -15 5 0 15 -14 23 -31 7 -17 25 -35 40 -41 30 -12 550 -17 558 -5 2 4 12 7 21 7 21 0 55 37 47 50 -3 6 -17 -2 -30 -18 l-23 -27 -282 0 -282 0 -24 28 -24 28 0 270 c0 194 -3 269 -11 269 -9 0 -10 -32 -5 -116z"/><default:path d="M2391 1494 c0 -11 3 -14 6 -6 3 7 2 16 -1 19 -3 4 -6 -2 -5 -13z"/><default:path d="M2393 1375 c0 -38 2 -53 4 -32 2 20 2 52 0 70 -2 17 -4 1 -4 -38z"/><default:path d="M1411 1314 c0 -11 3 -14 6 -6 3 7 2 16 -1 19 -3 4 -6 -2 -5 -13z"/><default:path d="M2392 1180 c0 -14 2 -19 5 -12 2 6 2 18 0 25 -3 6 -5 1 -5 -13z"/><default:path d="M2392 870 c0 -19 2 -27 5 -17 2 9 2 25 0 35 -3 9 -5 1 -5 -18z"/><default:path d="M770 789 c-39 -15 -60 -49 -60 -96 0 -25 5 -43 11 -43 6 0 9 -7 6 -14 -4 -9 2 -17 14 -21 10 -4 19 -11 19 -16 0 -5 9 -9 21 -9 11 0 18 -3 16 -7 -3 -5 6 -9 20 -10 16 0 21 2 14 7 -9 5 -8 9 4 14 23 8 27 8 20 -4 -3 -6 1 -7 9 -4 9 3 14 9 13 12 -3 10 29 53 35 47 3 -3 3 5 1 18 -3 14 0 28 6 31 6 4 11 13 11 19 0 7 -4 6 -10 -3 -8 -12 -10 -9 -10 12 0 20 -10 34 -37 53 -40 27 -63 30 -103 14z m112 -41 c22 -29 23 -76 2 -106 -55 -79 -178 -22 -160 73 13 70 114 91 158 33z"/><default:path d="M759 739 c-28 -28 -22 -76 13 -102 29 -22 65 -18 92 9 22 21 20 77 -2 97 -26 23 -78 21 -103 -4z m89 -11 c7 -7 12 -24 12 -38 0 -32 -17 -50 -46 -50 -44 0 -72 58 -42 88 15 15 61 15 76 0z"/><default:path d="M5143 793 c-33 -6 -65 -64 -61 -110 2 -28 11 -45 33 -63 17 -14 36 -32 43 -40 8 -8 11 -9 7 -2 -5 10 2 12 32 8 30 -5 34 -4 18 4 -16 9 -14 10 15 6 19 -3 30 -2 23 0 -7 3 -2 14 13 29 34 34 35 115 2 139 -18 12 -19 14 -4 9 14 -4 17 -3 12 6 -4 6 -16 9 -26 6 -10 -3 -21 -2 -23 2 -6 10 -50 13 -84 6z m92 -25 c14 -6 25 -15 25 -20 0 -5 3 -7 8 -5 11 8 13 -59 2 -88 -12 -31 -64 -55 -103 -48 -63 12 -88 97 -42 147 26 29 67 34 110 14z"/><default:path d="M5142 744 c-15 -10 -22 -25 -22 -49 0 -61 61 -93 108 -58 77 57 -8 162 -86 107z m76 -10 c34 -23 27 -75 -11 -88 -37 -13 -61 2 -65 42 -2 22 3 34 20 46 12 9 25 16 28 16 3 0 16 -7 28 -16z"/><default:path d="M1406 763 c-6 -14 -5 -15 5 -6 7 7 10 15 7 18 -3 3 -9 -2 -12 -12z"/><default:path d="M2860 741 c0 -6 4 -13 10 -16 6 -3 7 1 4 9 -7 18 -14 21 -14 7z"/><default:path d="M1740 580 c8 -5 20 -10 25 -10 6 0 3 5 -5 10 -8 5 -19 10 -25 10 -5 0 -3 -5 5 -10z"/><default:path d="M3288 83 c7 -3 16 -2 19 1 4 3 -2 6 -13 5 -11 0 -14 -3 -6 -6z"/></default:g></svg>