<?xml version="1.0" encoding="UTF-8"?>
<svg version="1.1" xmlns="http://www.w3.org/2000/svg" width="512" height="512">
<path d="M0 0 C0.70476471 0.00248749 1.40952942 0.00497498 2.13565063 0.00753784 C12.76263853 0.06548708 22.95884914 0.41042954 33.25 3.3125 C34.04841309 3.53292969 34.84682617 3.75335938 35.66943359 3.98046875 C71.33673762 14.13849544 100.45251246 36.27807712 119.25 68.3125 C132.22869839 91.7520293 136.55552343 115.06978969 136.54052734 141.55297852 C136.54652115 143.6764601 136.55332864 145.79993953 136.56088257 147.92341614 C136.57844795 153.65414889 136.5832335 159.38482182 136.58451414 165.11557889 C136.58593994 168.6975467 136.59021732 172.27949948 136.59550858 175.86146355 C136.61396673 188.360533 136.62218314 200.85955995 136.62060547 213.35864258 C136.6194003 225.00992283 136.64058692 236.66101898 136.6720928 248.31225258 C136.69820669 258.32609128 136.70897505 268.33986956 136.70769465 278.35374206 C136.70718424 284.33076376 136.71291348 290.30762109 136.73405075 296.28460884 C136.7533545 301.89490026 136.75361171 307.5048689 136.73901749 313.11517143 C136.73691956 315.17596786 136.74168842 317.23678412 136.7537384 319.29754639 C136.76909563 322.1050035 136.75994673 324.91133371 136.74447632 327.71876526 C136.75476344 328.53869117 136.76505057 329.35861708 136.77564943 330.20338923 C136.73188827 333.78304053 136.57436526 335.87890584 134.39878273 338.78710842 C131.54247072 340.8147654 129.76217294 341.3125 126.25 341.3125 C119.91142663 338.35449909 115.73847345 332.51881366 111.25 327.3125 C110.08404357 325.97854554 108.91743353 324.64516194 107.75 323.3125 C107.193125 322.673125 106.63625 322.03375 106.0625 321.375 C103.22643928 318.14775849 100.34013362 314.96607801 97.4609375 311.77734375 C94.86177704 308.87969313 92.30314192 305.94886469 89.7578125 303.00390625 C88.30861014 301.3782466 86.805849 299.83574139 85.25 298.3125 C79.76741493 304.26105523 74.29278517 310.20814007 68.9921875 316.3203125 C66.18447339 319.53092729 63.31556836 322.6862318 60.45703125 325.8515625 C58.4292387 328.11264092 56.42838079 330.39393712 54.4375 332.6875 C53.87546875 333.32558594 53.3134375 333.96367187 52.734375 334.62109375 C51.53758358 335.98480608 50.35949291 337.36491747 49.1875 338.75 C46.52219182 340.89944208 44.65578474 341.24299419 41.25 341.3125 C36.47011179 339.06505682 33.34860868 335.48072596 29.875 331.625 C29.0102002 330.67898926 29.0102002 330.67898926 28.12792969 329.71386719 C24.67948126 325.93050452 21.27031251 322.11395395 17.92578125 318.23828125 C15.87544325 315.88206532 13.7821112 313.56692483 11.6875 311.25 C8.14303555 307.32317037 4.67082097 303.34731448 1.25 299.3125 C-2.79427713 300.88474825 -5.25576342 303.76420109 -8.0625 306.9375 C-8.79315674 307.74936768 -8.79315674 307.74936768 -9.53857422 308.57763672 C-12.72728706 312.12992835 -15.88035108 315.71400531 -19.0078125 319.3203125 C-21.81428057 322.52950244 -24.68085386 325.6842092 -27.54296875 328.84375 C-30.14058305 331.74939997 -32.65556027 334.71969361 -35.14453125 337.71875 C-36.99013735 339.55088452 -38.27190189 340.49388231 -40.75 341.3125 C-45.95474384 341.15352376 -48.17982294 339.47370904 -51.6875 335.75 C-52.55117187 334.84121094 -53.41484375 333.93242187 -54.3046875 332.99609375 C-56.89677088 330.15142717 -59.46854114 327.29744963 -61.97265625 324.375 C-64.0297624 321.98785264 -66.13684772 319.65015244 -68.25 317.3125 C-73.87189109 311.0787024 -79.40773802 304.78796907 -84.75 298.3125 C-88.47855411 301.99325214 -92.07821527 305.76925596 -95.625 309.625 C-96.15456299 310.19968018 -96.68412598 310.77436035 -97.22973633 311.36645508 C-100.55062671 314.9802306 -103.82155032 318.63056802 -107.03125 322.34375 C-109.85357659 325.57659682 -112.74926836 328.74331192 -115.63671875 331.91796875 C-117.80285923 334.31378475 -117.80285923 334.31378475 -119.80859375 337.01953125 C-122.51252408 340.21310691 -124.64785288 340.7466866 -128.75 341.3125 C-134.27272727 339.26704545 -134.27272727 339.26704545 -135.75 336.3125 C-135.85460262 333.52312 -135.89779458 330.75833738 -135.89717102 327.96841431 C-135.90268605 326.65782171 -135.90268605 326.65782171 -135.9083125 325.3207525 C-135.91937941 322.37479921 -135.92319846 319.42888116 -135.92700195 316.48291016 C-135.93326496 314.37716051 -135.93991161 312.27141198 -135.94691467 310.16566467 C-135.96799875 303.2276385 -135.97832963 296.28961202 -135.98828125 289.3515625 C-135.99232893 286.96038171 -135.99644586 284.56920103 -136.00063133 282.17802048 C-136.01970233 270.93009294 -136.03392232 259.682172 -136.0422433 248.4342314 C-136.05198577 235.47951785 -136.07821875 222.52497653 -136.11874419 209.57032359 C-136.14902159 199.54457449 -136.16372365 189.51887438 -136.16702431 179.4930805 C-136.16936403 173.51313799 -136.17818128 167.53337903 -136.20348549 161.55348587 C-136.22697116 155.91129554 -136.23091799 150.26940686 -136.22072411 144.6271801 C-136.22023337 142.57149559 -136.22641486 140.5157952 -136.24028015 138.46015739 C-136.34626665 121.79468684 -134.74474753 105.26707945 -128.5625 89.625 C-128.26770752 88.85647705 -127.97291504 88.0879541 -127.66918945 87.29614258 C-113.73824049 52.09172168 -87.88442509 25.65140236 -53.35546875 10.203125 C-48.49800927 8.13862588 -43.54635903 6.47566674 -38.5 4.9375 C-37.33198853 4.57954346 -37.33198853 4.57954346 -36.14038086 4.21435547 C-24.21612109 0.7783202 -12.36460908 -0.06996595 0 0 Z " fill="#EC4747" transform="translate(255.75,87.6875)"/>
<path d="M0 0 C0.70476471 0.00248749 1.40952942 0.00497498 2.13565063 0.00753784 C12.76263853 0.06548708 22.95884914 0.41042954 33.25 3.3125 C34.04841309 3.53292969 34.84682617 3.75335938 35.66943359 3.98046875 C71.33673762 14.13849544 100.45251246 36.27807712 119.25 68.3125 C132.22869839 91.7520293 136.55552343 115.06978969 136.54052734 141.55297852 C136.54652115 143.6764601 136.55332864 145.79993953 136.56088257 147.92341614 C136.57844795 153.65414889 136.5832335 159.38482182 136.58451414 165.11557889 C136.58593994 168.6975467 136.59021732 172.27949948 136.59550858 175.86146355 C136.61396673 188.360533 136.62218314 200.85955995 136.62060547 213.35864258 C136.6194003 225.00992283 136.64058692 236.66101898 136.6720928 248.31225258 C136.69820669 258.32609128 136.70897505 268.33986956 136.70769465 278.35374206 C136.70718424 284.33076376 136.71291348 290.30762109 136.73405075 296.28460884 C136.7533545 301.89490026 136.75361171 307.5048689 136.73901749 313.11517143 C136.73691956 315.17596786 136.74168842 317.23678412 136.7537384 319.29754639 C136.76909563 322.1050035 136.75994673 324.91133371 136.74447632 327.71876526 C136.75476344 328.53869117 136.76505057 329.35861708 136.77564943 330.20338923 C136.73188827 333.78304053 136.57436526 335.87890584 134.39878273 338.78710842 C131.54247072 340.8147654 129.76217294 341.3125 126.25 341.3125 C119.91142663 338.35449909 115.73847345 332.51881366 111.25 327.3125 C110.08404357 325.97854554 108.91743353 324.64516194 107.75 323.3125 C107.193125 322.673125 106.63625 322.03375 106.0625 321.375 C103.22643928 318.14775849 100.34013362 314.96607801 97.4609375 311.77734375 C94.86177704 308.87969313 92.30314192 305.94886469 89.7578125 303.00390625 C88.30861014 301.3782466 86.805849 299.83574139 85.25 298.3125 C79.76741493 304.26105523 74.29278517 310.20814007 68.9921875 316.3203125 C66.18447339 319.53092729 63.31556836 322.6862318 60.45703125 325.8515625 C58.4292387 328.11264092 56.42838079 330.39393712 54.4375 332.6875 C53.87546875 333.32558594 53.3134375 333.96367187 52.734375 334.62109375 C51.53758358 335.98480608 50.35949291 337.36491747 49.1875 338.75 C46.52219182 340.89944208 44.65578474 341.24299419 41.25 341.3125 C36.47011179 339.06505682 33.34860868 335.48072596 29.875 331.625 C29.0102002 330.67898926 29.0102002 330.67898926 28.12792969 329.71386719 C24.67948126 325.93050452 21.27031251 322.11395395 17.92578125 318.23828125 C15.87544325 315.88206532 13.7821112 313.56692483 11.6875 311.25 C8.14303555 307.32317037 4.67082097 303.34731448 1.25 299.3125 C-2.79427713 300.88474825 -5.25576342 303.76420109 -8.0625 306.9375 C-8.79315674 307.74936768 -8.79315674 307.74936768 -9.53857422 308.57763672 C-12.72728706 312.12992835 -15.88035108 315.71400531 -19.0078125 319.3203125 C-21.81428057 322.52950244 -24.68085386 325.6842092 -27.54296875 328.84375 C-30.14058305 331.74939997 -32.65556027 334.71969361 -35.14453125 337.71875 C-36.99013735 339.55088452 -38.27190189 340.49388231 -40.75 341.3125 C-45.95474384 341.15352376 -48.17982294 339.47370904 -51.6875 335.75 C-52.55117187 334.84121094 -53.41484375 333.93242187 -54.3046875 332.99609375 C-56.89677088 330.15142717 -59.46854114 327.29744963 -61.97265625 324.375 C-64.0297624 321.98785264 -66.13684772 319.65015244 -68.25 317.3125 C-73.87189109 311.0787024 -79.40773802 304.78796907 -84.75 298.3125 C-88.47855411 301.99325214 -92.07821527 305.76925596 -95.625 309.625 C-96.15456299 310.19968018 -96.68412598 310.77436035 -97.22973633 311.36645508 C-100.55062671 314.9802306 -103.82155032 318.63056802 -107.03125 322.34375 C-109.85357659 325.57659682 -112.74926836 328.74331192 -115.63671875 331.91796875 C-117.80285923 334.31378475 -117.80285923 334.31378475 -119.80859375 337.01953125 C-122.51252408 340.21310691 -124.64785288 340.7466866 -128.75 341.3125 C-134.27272727 339.26704545 -134.27272727 339.26704545 -135.75 336.3125 C-135.85460262 333.52312 -135.89779458 330.75833738 -135.89717102 327.96841431 C-135.90268605 326.65782171 -135.90268605 326.65782171 -135.9083125 325.3207525 C-135.91937941 322.37479921 -135.92319846 319.42888116 -135.92700195 316.48291016 C-135.93326496 314.37716051 -135.93991161 312.27141198 -135.94691467 310.16566467 C-135.96799875 303.2276385 -135.97832963 296.28961202 -135.98828125 289.3515625 C-135.99232893 286.96038171 -135.99644586 284.56920103 -136.00063133 282.17802048 C-136.01970233 270.93009294 -136.03392232 259.682172 -136.0422433 248.4342314 C-136.05198577 235.47951785 -136.07821875 222.52497653 -136.11874419 209.57032359 C-136.14902159 199.54457449 -136.16372365 189.51887438 -136.16702431 179.4930805 C-136.16936403 173.51313799 -136.17818128 167.53337903 -136.20348549 161.55348587 C-136.22697116 155.91129554 -136.23091799 150.26940686 -136.22072411 144.6271801 C-136.22023337 142.57149559 -136.22641486 140.5157952 -136.24028015 138.46015739 C-136.34626665 121.79468684 -134.74474753 105.26707945 -128.5625 89.625 C-128.26770752 88.85647705 -127.97291504 88.0879541 -127.66918945 87.29614258 C-113.73824049 52.09172168 -87.88442509 25.65140236 -53.35546875 10.203125 C-48.49800927 8.13862588 -43.54635903 6.47566674 -38.5 4.9375 C-37.33198853 4.57954346 -37.33198853 4.57954346 -36.14038086 4.21435547 C-24.21612109 0.7783202 -12.36460908 -0.06996595 0 0 Z M-84.75 51.3125 C-85.35328125 51.85132813 -85.9565625 52.39015625 -86.578125 52.9453125 C-101.94851068 67.2383347 -112.04141107 88.15217252 -116.75 108.3125 C-116.99597081 109.24577936 -117.24194162 110.17905872 -117.4953661 111.14061928 C-119.97238741 121.27261033 -120.15739343 130.87559194 -120.09057617 141.25146484 C-120.08972809 143.11557501 -120.09020857 144.97968618 -120.09190369 146.84379578 C-120.092758 151.8614915 -120.07522443 156.87896836 -120.05418181 161.8966136 C-120.03532014 167.15629409 -120.03365714 172.4159806 -120.03010559 177.6756897 C-120.02081285 187.61653342 -119.99623687 197.55727717 -119.96605712 207.49807703 C-119.93242647 218.82344417 -119.91600539 230.14881629 -119.90097082 241.47422099 C-119.86968463 264.75370257 -119.81697847 288.03309566 -119.75 311.3125 C-116.09509737 307.66330279 -112.50776127 303.97720629 -109 300.1875 C-108.47776855 299.62417969 -107.95553711 299.06085938 -107.41748047 298.48046875 C-104.09115734 294.8602577 -100.94481581 291.1523713 -97.875 287.3125 C-91.70149723 279.71775918 -91.70149723 279.71775918 -87.75 277.3125 C-84.07738183 277.0454005 -81.94070582 277.38698479 -78.99609375 279.67578125 C-77.14291351 281.47921169 -75.4408406 283.35628083 -73.75 285.3125 C-72.91855469 286.24835938 -72.91855469 286.24835938 -72.0703125 287.203125 C-70.9170994 288.51045414 -69.77152072 289.82454885 -68.6328125 291.14453125 C-66.5342468 293.56092951 -64.395603 295.93779024 -62.25 298.3125 C-58.97484816 301.94232141 -55.73478792 305.59888781 -52.5234375 309.28515625 C-49.28952142 312.98207793 -46.017917 316.64564248 -42.75 320.3125 C-41.59960919 319.16210919 -40.44955293 318.01138266 -39.30078125 316.859375 C-38.24083338 315.80209702 -37.17545767 314.75024005 -36.10546875 313.703125 C-32.43789496 310.09350384 -28.98343239 306.36693046 -25.625 302.46875 C-23.57640906 300.11287042 -21.47796998 297.8074254 -19.375 295.5 C-15.29660735 290.99561086 -11.46916694 286.32377872 -7.6953125 281.5625 C-5.75 279.3125 -5.75 279.3125 -2.75 277.3125 C1.34542524 277.38834121 3.51829282 277.64217765 6.578125 280.4453125 C7.45984375 281.39148438 8.3415625 282.33765625 9.25 283.3125 C9.7464502 283.83803467 10.24290039 284.36356934 10.75439453 284.9050293 C12.38730985 286.63650434 14.00766914 288.37896405 15.625 290.125 C16.4897998 291.05747559 16.4897998 291.05747559 17.37207031 292.00878906 C20.83101619 295.74898181 24.23835195 299.52477277 27.5703125 303.37890625 C29.64979593 305.7727302 31.7593411 308.13809228 33.875 310.5 C34.58914063 311.29792969 35.30328125 312.09585937 36.0390625 312.91796875 C38.37852014 315.45169231 40.79666926 317.88929788 43.25 320.3125 C46.74528858 316.59116968 50.23481928 312.86451831 53.71484375 309.12890625 C54.30386475 308.49670166 54.89288574 307.86449707 55.49975586 307.21313477 C58.95736892 303.45842453 62.29672223 299.61167806 65.60107422 295.72216797 C66.6366824 294.50359014 67.67317699 293.2857652 68.71044922 292.06860352 C69.74722071 290.85124229 70.78156668 289.63180939 71.81298828 288.40991211 C81.01432032 277.59567659 81.01432032 277.59567659 85.25 276.625 C91.5424603 278.06702215 95.30660165 283.35566882 99.33203125 288.07421875 C101.43170782 290.52455413 103.58506376 292.91967573 105.75 295.3125 C109.12217838 299.04721633 112.45183832 302.81414386 115.7421875 306.62109375 C117.19167901 308.24707775 118.70389798 309.77901813 120.25 311.3125 C120.36724464 287.04997731 120.45518848 262.78749762 120.50906086 238.52474785 C120.53474911 227.25696163 120.56971849 215.9893523 120.62719727 204.72167969 C120.67732131 194.89101027 120.709359 185.06046908 120.72044247 175.22967541 C120.72691253 170.03315215 120.74191904 164.83699544 120.77865028 159.64059067 C121.33312654 129.57912525 121.33312654 129.57912525 115.25 100.3125 C114.93556914 99.33909227 114.93556914 99.33909227 114.61478615 98.34601974 C108.74184963 80.32666974 98.16311385 65.00181195 85.25 51.3125 C84.38955078 50.37277344 84.38955078 50.37277344 83.51171875 49.4140625 C64.53513029 29.39579973 34.16864808 17.07973736 6.9453125 15.94140625 C-28.62191594 15.28354947 -58.86933302 26.94897557 -84.75 51.3125 Z " fill="#231F20" transform="translate(255.75,87.6875)"/>
<path d="M0 0 C10.87335112 8.11333525 20.00327078 20.24018237 22.265625 33.94140625 C23.7557607 50.98313998 20.42790175 65.11269047 9.671875 78.6796875 C0.3201022 88.78971215 -12.78656645 94.80697035 -26.42578125 95.55859375 C-42.51202071 95.99905031 -55.5236995 90.95778786 -67.23046875 79.8828125 C-78.32512007 67.84151857 -81.95086597 54.28454502 -81.79296875 38.2421875 C-80.89892037 25.67442171 -74.14462592 12.83359837 -64.9453125 4.27734375 C-45.49987404 -10.78425995 -21.2759118 -13.52422301 0 0 Z " fill="#262021" transform="translate(345.51953125,168.6015625)"/>
<path d="M0 0 C10.87335112 8.11333525 20.00327078 20.24018237 22.265625 33.94140625 C23.7557607 50.98313998 20.42790175 65.11269047 9.671875 78.6796875 C0.3201022 88.78971215 -12.78656645 94.80697035 -26.42578125 95.55859375 C-42.51202071 95.99905031 -55.5236995 90.95778786 -67.23046875 79.8828125 C-78.32512007 67.84151857 -81.95086597 54.28454502 -81.79296875 38.2421875 C-80.89892037 25.67442171 -74.14462592 12.83359837 -64.9453125 4.27734375 C-45.49987404 -10.78425995 -21.2759118 -13.52422301 0 0 Z " fill="#262021" transform="translate(225.51953125,168.6015625)"/>
<path d="M0 0 C7.0672324 6.56337718 11.33279433 14.37198546 12.03515625 24.04296875 C12.22537171 36.02654255 8.77136473 45.08012574 0.64453125 53.93359375 C-7.29764552 61.52819167 -16.44516376 63.57851439 -27.10546875 63.4609375 C-37.11602069 62.75866664 -45.73228988 57.41624305 -52.5625 50.2734375 C-59.52058345 41.48695256 -60.90348407 32.1562377 -60.16796875 21.24609375 C-58.32149899 10.33940371 -51.90390741 2.70380451 -43.16796875 -3.75390625 C-29.32688789 -12.19670973 -12.43617658 -10.06097889 0 0 Z " fill="#FCFCFC" transform="translate(340.16796875,184.75390625)"/>
<path d="M0 0 C7.0672324 6.56337718 11.33279433 14.37198546 12.03515625 24.04296875 C12.22537171 36.02654255 8.77136473 45.08012574 0.64453125 53.93359375 C-7.29764552 61.52819167 -16.44516376 63.57851439 -27.10546875 63.4609375 C-37.11602069 62.75866664 -45.73228988 57.41624305 -52.5625 50.2734375 C-59.52058345 41.48695256 -60.90348407 32.1562377 -60.16796875 21.24609375 C-58.32149899 10.33940371 -51.90390741 2.70380451 -43.16796875 -3.75390625 C-29.32688789 -12.19670973 -12.43617658 -10.06097889 0 0 Z " fill="#FCFCFC" transform="translate(220.16796875,184.75390625)"/>
<path d="M0 0 C1.73618591 -0.00006042 1.73618591 -0.00006042 3.50744629 -0.00012207 C5.95179684 0.00523347 8.39614694 0.02281732 10.84033203 0.05175781 C14.58028833 0.09359939 18.31844293 0.09282635 22.05859375 0.0859375 C24.43490834 0.09643055 26.81121365 0.10936926 29.1875 0.125 C30.3053186 0.12520142 31.42313721 0.12540283 32.5748291 0.12561035 C34.14170471 0.14947815 34.14170471 0.14947815 35.74023438 0.17382812 C37.11326721 0.18645691 37.11326721 0.18645691 38.51403809 0.19934082 C41.63433226 0.676399 43.54257635 1.76301627 46.09375 3.59375 C47.49832737 6.40290474 47.34270157 8.48185534 47.09375 11.59375 C45.31390595 14.7296657 44.57066793 15.43477736 41.09375 16.59375 C39.38740843 16.70601312 37.67714861 16.76271412 35.96728516 16.78662109 C34.92255035 16.80268402 33.87781555 16.81874695 32.80142212 16.83529663 C28.03363736 16.87977343 23.26599045 16.92079304 18.49804688 16.94384766 C15.98200239 16.96042624 13.46600536 16.98774082 10.95019531 17.02587891 C7.32331909 17.08057216 3.69754524 17.10250922 0.0703125 17.1171875 C-1.61582657 17.15119156 -1.61582657 17.15119156 -3.33602905 17.18588257 C-11.12480853 17.16476223 -11.12480853 17.16476223 -15.11572266 14.24853516 C-16.90625 11.59375 -16.90625 11.59375 -17.53125 8.59375 C-15.57756079 -0.78395819 -7.83903622 -0.11497667 0 0 Z " fill="#241F20" transform="translate(240.90625,279.40625)"/>
<path d="M0 0 C3.77774611 3.10614681 5.52484321 5.38109012 6.25 10.25 C5.55136049 15.14047655 3.29336428 18.11179923 -0.5 21.1875 C-4.11382583 22.7002643 -6.29536969 22.91645126 -10.1875 22.3125 C-14.00484468 19.90393729 -16.74533649 17.63899052 -18.1875 13.3125 C-18.84829295 7.47549559 -18.84829295 7.47549559 -17.2109375 4.59375 C-12.36997027 -1.46488384 -7.20059601 -3.81208024 0 0 Z " fill="#292526" transform="translate(322.1875,209.6875)"/>
<path d="M0 0 C3.77774611 3.10614681 5.52484321 5.38109012 6.25 10.25 C5.55136049 15.14047655 3.29336428 18.11179923 -0.5 21.1875 C-4.11382583 22.7002643 -6.29536969 22.91645126 -10.1875 22.3125 C-14.00484468 19.90393729 -16.74533649 17.63899052 -18.1875 13.3125 C-18.84829295 7.47549559 -18.84829295 7.47549559 -17.2109375 4.59375 C-12.36997027 -1.46488384 -7.20059601 -3.81208024 0 0 Z " fill="#292526" transform="translate(202.1875,209.6875)"/>
</svg>
