<?xml version="1.0" encoding="UTF-8"?>
<svg version="1.1" xmlns="http://www.w3.org/2000/svg" width="512" height="512">
<path d="M0 0 C0.78095032 -0.00705963 1.56190063 -0.01411926 2.36651611 -0.02139282 C34.83347489 -0.24834147 34.83347489 -0.24834147 48.57421875 3.203125 C49.39519043 3.40180176 50.21616211 3.60047852 51.06201172 3.80517578 C81.55884991 11.354458 109.55025308 25.61962173 132.04785156 47.70751953 C133.5813073 49.21007069 135.13461327 50.68964906 136.69140625 52.16796875 C155.69502565 70.43952576 155.69502565 70.43952576 157.13671875 79.890625 C157.06429794 82.42082719 156.86807599 83.79230485 155.38671875 85.86328125 C153.22249414 87.82944066 150.95721914 89.50519625 148.57421875 91.203125 C147.99430176 91.62045898 147.41438477 92.03779297 146.81689453 92.46777344 C143.30002826 94.99421172 139.76078707 97.48670226 136.20703125 99.9609375 C131.62424031 103.15594105 127.09528681 106.42159374 122.57421875 109.703125 C116.76892695 113.91049241 110.93899375 118.07908322 105.07421875 122.203125 C96.18345303 128.45745376 87.37588874 134.8242803 78.57421875 141.203125 C69.08974462 148.07681915 59.58775319 154.92006024 50.00585938 161.6574707 C41.80771956 167.43055159 33.69036477 173.31558697 25.57421875 179.203125 C26.66186794 182.46607257 27.06273092 182.82482418 29.7578125 184.6640625 C30.42876953 185.12876953 31.09972656 185.59347656 31.79101562 186.07226562 C32.52384766 186.56919922 33.25667969 187.06613281 34.01171875 187.578125 C35.57363248 188.65781939 37.13480693 189.73858387 38.6953125 190.8203125 C39.50339355 191.3781543 40.31147461 191.93599609 41.14404297 192.51074219 C44.99147603 195.19010787 48.78193266 197.94653161 52.57421875 200.703125 C58.37918821 204.91093021 64.2094506 209.07908803 70.07421875 213.203125 C79.72945338 219.9952297 89.28627807 226.92132713 98.84472656 233.84863281 C106.8905125 239.67775797 114.94831029 245.48604542 123.07421875 251.203125 C129.21914498 255.52966207 135.34575276 259.88075362 141.44921875 264.265625 C142.21685547 264.81412109 142.98449219 265.36261719 143.77539062 265.92773438 C144.49017578 266.44271484 145.20496094 266.95769531 145.94140625 267.48828125 C146.57159668 267.94082275 147.20178711 268.39336426 147.85107422 268.85961914 C151.32349455 271.56700495 152.43652181 272.59332428 153.44921875 277.078125 C153.13059783 284.68826319 146.55804124 290.03886791 141.57421875 295.203125 C140.95321289 295.85829102 140.33220703 296.51345703 139.69238281 297.18847656 C109.18944335 329.2462885 67.52001145 351.05011116 22.72373962 352.48670959 C-11.16993252 353.31894432 -11.16993252 353.31894432 -27.42578125 349.203125 C-28.26802246 348.99381348 -29.11026367 348.78450195 -29.97802734 348.56884766 C-59.88110374 340.95431406 -87.71815383 327.45495024 -109.90722656 305.68652344 C-111.54974097 304.08203508 -113.21774203 302.50660814 -114.88671875 300.9296875 C-143.70540386 273.33757955 -164.52365144 231.41890743 -165.58691406 191.1081543 C-165.60642809 189.66461481 -165.62019855 188.22098886 -165.62890625 186.77734375 C-165.63596588 185.99639343 -165.64302551 185.21544312 -165.65029907 184.41082764 C-165.87798798 151.83796802 -165.87798798 151.83796802 -162.42578125 138.203125 C-162.21646973 137.36088379 -162.0071582 136.51864258 -161.79150391 135.65087891 C-153.56612149 103.34893481 -138.48526164 75.23064867 -114.8515625 51.6328125 C-113.37664249 50.15551742 -111.91942803 48.65987154 -110.49609375 47.1328125 C-83.41833072 18.53260496 -39.17675485 0.23630424 0 0 Z M12.57421875 78.203125 C10.95991952 81.43172347 10.97851218 84.71306153 11.57421875 88.203125 C13.3102398 91.22820645 15.41002012 93.62102569 18.57421875 95.203125 C23.69792273 95.81041345 23.69792273 95.81041345 28.3984375 94.15625 C32.20174619 91.02519685 33.46085242 89.33678832 33.94921875 84.453125 C33.9248065 81.10254432 33.33023229 79.35417968 31.19921875 76.765625 C27.66936015 73.31981065 25.64585355 72.80756664 20.6796875 72.84375 C16.95828422 73.47894314 15.17109026 75.54291516 12.57421875 78.203125 Z " fill="#EBD87D" transform="translate(245.42578125,79.796875)"/>
<path d="M0 0 C0.78095032 -0.00705963 1.56190063 -0.01411926 2.36651611 -0.02139282 C34.83347489 -0.24834147 34.83347489 -0.24834147 48.57421875 3.203125 C49.39519043 3.40180176 50.21616211 3.60047852 51.06201172 3.80517578 C81.55884991 11.354458 109.55025308 25.61962173 132.04785156 47.70751953 C133.5813073 49.21007069 135.13461327 50.68964906 136.69140625 52.16796875 C155.69502565 70.43952576 155.69502565 70.43952576 157.13671875 79.890625 C157.06429794 82.42082719 156.86807599 83.79230485 155.38671875 85.86328125 C153.22249414 87.82944066 150.95721914 89.50519625 148.57421875 91.203125 C147.99430176 91.62045898 147.41438477 92.03779297 146.81689453 92.46777344 C143.30002826 94.99421172 139.76078707 97.48670226 136.20703125 99.9609375 C131.62424031 103.15594105 127.09528681 106.42159374 122.57421875 109.703125 C116.76892695 113.91049241 110.93899375 118.07908322 105.07421875 122.203125 C96.18345303 128.45745376 87.37588874 134.8242803 78.57421875 141.203125 C69.08974462 148.07681915 59.58775319 154.92006024 50.00585938 161.6574707 C41.80771956 167.43055159 33.69036477 173.31558697 25.57421875 179.203125 C26.66186794 182.46607257 27.06273092 182.82482418 29.7578125 184.6640625 C30.42876953 185.12876953 31.09972656 185.59347656 31.79101562 186.07226562 C32.52384766 186.56919922 33.25667969 187.06613281 34.01171875 187.578125 C35.57363248 188.65781939 37.13480693 189.73858387 38.6953125 190.8203125 C39.50339355 191.3781543 40.31147461 191.93599609 41.14404297 192.51074219 C44.99147603 195.19010787 48.78193266 197.94653161 52.57421875 200.703125 C58.37918821 204.91093021 64.2094506 209.07908803 70.07421875 213.203125 C79.72945338 219.9952297 89.28627807 226.92132713 98.84472656 233.84863281 C106.8905125 239.67775797 114.94831029 245.48604542 123.07421875 251.203125 C129.21914498 255.52966207 135.34575276 259.88075362 141.44921875 264.265625 C142.21685547 264.81412109 142.98449219 265.36261719 143.77539062 265.92773438 C144.49017578 266.44271484 145.20496094 266.95769531 145.94140625 267.48828125 C146.57159668 267.94082275 147.20178711 268.39336426 147.85107422 268.85961914 C151.32349455 271.56700495 152.43652181 272.59332428 153.44921875 277.078125 C153.13059783 284.68826319 146.55804124 290.03886791 141.57421875 295.203125 C140.95321289 295.85829102 140.33220703 296.51345703 139.69238281 297.18847656 C109.18944335 329.2462885 67.52001145 351.05011116 22.72373962 352.48670959 C-11.16993252 353.31894432 -11.16993252 353.31894432 -27.42578125 349.203125 C-28.26802246 348.99381348 -29.11026367 348.78450195 -29.97802734 348.56884766 C-59.88110374 340.95431406 -87.71815383 327.45495024 -109.90722656 305.68652344 C-111.54974097 304.08203508 -113.21774203 302.50660814 -114.88671875 300.9296875 C-143.70540386 273.33757955 -164.52365144 231.41890743 -165.58691406 191.1081543 C-165.60642809 189.66461481 -165.62019855 188.22098886 -165.62890625 186.77734375 C-165.63596588 185.99639343 -165.64302551 185.21544312 -165.65029907 184.41082764 C-165.87798798 151.83796802 -165.87798798 151.83796802 -162.42578125 138.203125 C-162.21646973 137.36088379 -162.0071582 136.51864258 -161.79150391 135.65087891 C-153.56612149 103.34893481 -138.48526164 75.23064867 -114.8515625 51.6328125 C-113.37664249 50.15551742 -111.91942803 48.65987154 -110.49609375 47.1328125 C-83.41833072 18.53260496 -39.17675485 0.23630424 0 0 Z M-107.19140625 66.7265625 C-138.25102171 101.15277963 -151.59831776 143.2536865 -149.42578125 189.203125 C-146.39352647 230.56308021 -126.29209176 270.22721566 -94.96386719 297.47460938 C-60.65956865 326.57485024 -18.9617779 338.61966326 25.57421875 336.203125 C66.4595454 332.5934405 103.62330577 312.65592755 130.9140625 282.34765625 C132.7782668 280.39154874 132.7782668 280.39154874 132.57421875 278.203125 C130.15142965 276.3476979 127.71799056 274.60778269 125.19921875 272.890625 C123.63212522 271.80437626 122.06574184 270.71710243 120.5 269.62890625 C119.68611816 269.06510254 118.87223633 268.50129883 118.03369141 267.92041016 C114.11766885 265.18611368 110.25216086 262.38325775 106.38671875 259.578125 C101.12784201 255.76945056 95.86263914 251.97068242 90.57421875 248.203125 C85.28579242 244.43556335 80.02114011 240.63605358 74.76171875 236.828125 C68.1979488 232.07773556 61.59731441 227.38361519 54.96948242 222.72314453 C49.05028335 218.55461746 43.18223048 214.31779049 37.32006836 210.06958008 C32.11864352 206.30524994 26.88753745 202.58568906 21.63671875 198.890625 C11.44600716 191.7088896 11.44600716 191.7088896 7.07421875 188.578125 C6.21828125 187.96710938 5.36234375 187.35609375 4.48046875 186.7265625 C1.92388669 184.68339241 1.63283159 183.6427213 1.19921875 180.390625 C1.70877534 176.05939403 3.34258581 175.09323795 6.57421875 172.203125 C9.07800165 170.28215603 11.66059295 168.48924537 14.26171875 166.703125 C15.78839432 165.64023283 17.31441486 164.57639933 18.83984375 163.51171875 C20.01450195 162.69356689 20.01450195 162.69356689 21.21289062 161.85888672 C25.0064696 159.19883165 28.75981698 156.48400728 32.51171875 153.765625 C33.25631348 153.22687744 34.0009082 152.68812988 34.76806641 152.13305664 C37.03738506 150.49057433 39.30592778 148.8470262 41.57421875 147.203125 C51.07188676 140.31986883 60.58853908 133.46928418 70.18212891 126.72021484 C77.60368328 121.49205451 84.95686929 116.170602 92.30810547 110.84423828 C96.8009736 107.59051499 101.29975616 104.34497381 105.79760742 101.09814453 C109.69951201 98.28098053 113.59934783 95.46101509 117.49609375 92.63671875 C118.70845703 91.75886719 118.70845703 91.75886719 119.9453125 90.86328125 C121.48503647 89.74830872 123.0241405 88.63247937 124.5625 87.515625 C128.51306931 84.65637318 132.4958365 81.87715864 136.57421875 79.203125 C135.05963078 74.06329745 131.87053401 70.86600176 128.26171875 67.078125 C127.63579834 66.41723877 127.00987793 65.75635254 126.36499023 65.07543945 C102.56882566 40.32658945 72.22403878 24.68737024 38.57421875 18.203125 C36.91519531 17.86667969 36.91519531 17.86667969 35.22265625 17.5234375 C-17.25244742 8.380997 -70.7124413 29.04938337 -107.19140625 66.7265625 Z " fill="#242020" transform="translate(245.42578125,79.796875)"/>
<path d="M0 0 C7.11063541 3.96483074 12.78946325 9.30193155 15.2421875 17.25 C17.00331532 26.14833003 15.88076341 32.94295614 11.453125 40.8671875 C7.15432051 47.27735171 1.14418023 51.44218747 -6.3125 53.5 C-15.34028102 54.68120499 -21.98083022 53.05444652 -29.46875 48.0625 C-35.96849993 43.01791797 -39.57765916 36.59186172 -40.75390625 28.44140625 C-41.1080879 19.47261274 -38.63614107 13.11309977 -33.0625 6.1875 C-24.43099455 -3.15089599 -11.45247673 -5.32237269 0 0 Z M-22.3125 19.5 C-23.92679923 22.72859847 -23.90820657 26.00993653 -23.3125 29.5 C-21.57647895 32.52508145 -19.47669863 34.91790069 -16.3125 36.5 C-11.18879602 37.10728845 -11.18879602 37.10728845 -6.48828125 35.453125 C-2.68497256 32.32207185 -1.42586633 30.63366332 -0.9375 25.75 C-0.96191225 22.39941932 -1.55648646 20.65105468 -3.6875 18.0625 C-7.2173586 14.61668565 -9.2408652 14.10444164 -14.20703125 14.140625 C-17.92843453 14.77581814 -19.71562849 16.83979016 -22.3125 19.5 Z " fill="#252120" transform="translate(280.3125,138.5)"/>
</svg>
