<?xml version="1.0" encoding="UTF-8"?>
<svg version="1.1" xmlns="http://www.w3.org/2000/svg" width="512" height="512">
<path d="M0 0 C1.22379112 -0.01052147 1.22379112 -0.01052147 2.4723053 -0.02125549 C5.09227076 -0.03866416 7.71201006 -0.0451082 10.33203125 -0.046875 C11.67569763 -0.04788712 11.67569763 -0.04788712 13.04650879 -0.04891968 C26.61515901 -0.03267761 39.82143023 0.40348268 53.14453125 3.203125 C53.95583496 3.36941406 54.76713867 3.53570313 55.60302734 3.70703125 C74.49367661 7.7066198 93.2048051 13.86680426 110.17578125 23.13476562 C112.25582865 24.2635215 114.35473141 25.35081298 116.45703125 26.4375 C133.61228531 35.45534157 148.66421657 46.97424954 162.45849609 60.54785156 C164.07450376 62.13437516 165.70992886 63.69787995 167.3515625 65.2578125 C206.016216 102.39550347 227.74769872 157.18710319 229.20368481 210.3635695 C229.30408011 216.17210464 229.30238355 221.98104392 229.30566406 227.7902832 C229.31030332 229.72533256 229.31532943 231.66038103 229.32070923 233.59542847 C229.333724 238.81251632 229.34025599 244.02959138 229.34471989 249.2466929 C229.34766687 252.51568726 229.35177448 255.78467824 229.35622406 259.05367088 C229.36986686 269.31003403 229.37955061 279.5663893 229.38342595 289.82276088 C229.38790645 301.61085653 229.40546767 313.39883621 229.43442655 325.18689662 C229.45611421 334.33641584 229.46613391 343.48590258 229.46746707 352.6354472 C229.46850953 358.08355676 229.47429794 363.53155684 229.49228668 368.97963905 C229.50889179 374.10732184 229.51086318 379.23481423 229.50214767 384.3625145 C229.50138406 386.23079505 229.50562936 388.0990864 229.51560593 389.96734047 C229.6493058 416.59181967 224.18062931 439.65796394 205.0859375 459.34765625 C189.48446584 474.81458786 169.48994958 482.51044179 147.70703125 482.703125 C124.63671628 482.4822991 104.40563864 474.1945791 87.70703125 458.078125 C85.45315695 455.74589515 83.51884131 453.43281761 81.76953125 450.703125 C81.23328125 449.878125 80.69703125 449.053125 80.14453125 448.203125 C79.48453125 448.203125 78.82453125 448.203125 78.14453125 448.203125 C76.57255022 449.98605126 76.57255022 449.98605126 74.95703125 452.265625 C62.55799824 468.48558451 43.48873516 479.47683204 23.14453125 482.203125 C-2.07095226 484.28650553 -24.24397508 478.5938693 -43.85546875 462.203125 C-47.77910675 458.68446486 -51.37788373 455.15441151 -54.23046875 450.703125 C-54.76671875 449.878125 -55.30296875 449.053125 -55.85546875 448.203125 C-56.51546875 448.203125 -57.17546875 448.203125 -57.85546875 448.203125 C-59.28723413 449.88957098 -59.28723413 449.88957098 -60.79296875 452.078125 C-73.33928524 468.52257686 -92.38967343 479.26602145 -112.85546875 482.203125 C-138.21361783 484.13537757 -160.11834406 478.65072891 -179.85546875 462.203125 C-195.88314305 448.16470106 -204.86215358 428.21205541 -206.85546875 407.203125 C-206.98430937 404.41235333 -206.99505917 401.62773718 -206.98918152 398.83432007 C-206.99144708 398.0303802 -206.99371263 397.22644033 -206.99604684 396.39813864 C-207.00233895 393.72423245 -207.00156054 391.05037758 -207.00073242 388.37646484 C-207.00372715 386.45041336 -207.00713041 384.52436248 -207.01091003 382.59831238 C-207.01972846 377.37639788 -207.02208742 372.15449979 -207.02272582 366.93257856 C-207.02343826 363.66056239 -207.0255764 360.38855034 -207.02822304 357.11653519 C-207.03747373 345.67306506 -207.04155882 334.22960656 -207.04077148 322.78613281 C-207.04017278 312.16863034 -207.05068441 301.55117903 -207.06651515 290.93368948 C-207.07966407 281.78421301 -207.08495222 272.6347531 -207.08431607 263.48526728 C-207.08406297 258.0363775 -207.08680855 252.58753306 -207.09749413 247.1386528 C-207.10729798 241.9987519 -207.10717175 236.8589385 -207.09997749 231.71903419 C-207.09894627 229.85125028 -207.10120532 227.98346055 -207.10733795 226.11568642 C-207.1607253 208.70176897 -206.33862568 191.1097767 -202.79296875 174.015625 C-202.58236816 172.99355957 -202.37176758 171.97149414 -202.15478516 170.91845703 C-195.1592751 138.82284271 -181.32134119 108.88917774 -160.85546875 83.203125 C-160.07171875 82.21441406 -159.28796875 81.22570312 -158.48046875 80.20703125 C-137.11835823 53.84837337 -110.59306225 33.45848078 -79.85546875 19.203125 C-78.80230469 18.69523437 -77.74914062 18.18734375 -76.6640625 17.6640625 C-53.07679572 6.83996707 -26.0200394 0.15076022 0 0 Z M-25.85546875 34.203125 C-26.6330957 34.37473145 -27.41072266 34.54633789 -28.21191406 34.72314453 C-78.68177017 46.20662745 -121.0117374 76.69556204 -148.85546875 120.203125 C-161.31163189 140.79167885 -169.71657708 164.09740537 -173.60546875 187.828125 C-173.72124268 188.5308252 -173.8370166 189.23352539 -173.95629883 189.95751953 C-176.03712536 203.95523169 -176.00535643 218.15419612 -176.00073242 232.27050781 C-176.00373274 234.12529568 -176.00713724 235.98008293 -176.01091003 237.83486938 C-176.01965959 242.82217527 -176.02208412 247.80946395 -176.02272582 252.79677677 C-176.0234408 255.9206796 -176.0255834 259.04457816 -176.02822304 262.16847992 C-176.03744224 273.08823419 -176.04156171 284.00797634 -176.04077148 294.92773438 C-176.04016967 305.0752687 -176.05075057 315.22275005 -176.06651515 325.37027097 C-176.07961421 334.11635881 -176.08495448 342.86242937 -176.08431607 351.60852695 C-176.08406205 356.81776474 -176.08686133 362.02695523 -176.09749413 367.23618317 C-176.10721661 372.13156928 -176.10722598 377.02686318 -176.09997749 381.92225266 C-176.09893723 383.71039084 -176.10126109 385.4985349 -176.10733795 387.28666306 C-176.17028049 407.10152585 -173.916491 423.23378124 -159.85546875 438.203125 C-147.86388014 448.99173577 -133.69291108 452.02112447 -118.08203125 451.38232422 C-105.63405645 450.38048063 -94.6101485 442.8886066 -86.1875 434.12109375 C-77.87624975 423.72158966 -74.87670209 411.75590243 -73.515625 398.7265625 C-72.67931198 394.26292733 -71.27024808 391.44105691 -67.85546875 388.453125 C-62.06958237 386.04233901 -56.12211401 385.83753705 -49.98046875 386.828125 C-46.23759579 388.4749891 -44.33669095 389.94209011 -41.85546875 393.203125 C-40.55537505 396.96655413 -39.93622752 400.31022876 -39.578125 404.26953125 C-38.22924182 417.59164715 -32.61064996 430.42806148 -22.3828125 439.36328125 C-8.96916648 449.2161404 3.72653646 452.52448555 20.14453125 451.203125 C34.2307292 448.45191446 45.68052734 440.02490907 53.9921875 428.6015625 C60.02903705 419.4924112 61.72382828 409.35543349 62.58984375 398.69921875 C63.30432736 394.19595938 64.7228607 391.44708673 68.14453125 388.453125 C73.93041763 386.04233901 79.87788599 385.83753705 86.01953125 386.828125 C90.77820373 388.92194089 93.37155541 391.29102687 95.33203125 396.140625 C96.18439296 399.72210816 96.55653869 403.36708534 97.01953125 407.015625 C98.97171109 421.191454 105.88368364 433.24340712 117.14453125 442.203125 C130.31537037 450.46103206 144.34334446 453.5290028 159.6328125 450.515625 C174.50885963 445.88494885 185.55860896 436.69768023 193.14453125 423.203125 C197.1667356 414.10371187 198.30008727 405.05750275 198.27824402 395.18945312 C198.28050958 394.42367636 198.28277513 393.65789959 198.28510934 392.86891747 C198.29139716 390.32405427 198.29062331 387.77924506 198.28979492 385.234375 C198.29278999 383.40023734 198.29619332 381.56610032 198.29997253 379.73196411 C198.30878915 374.75990719 198.31114989 369.78786751 198.31178832 364.81580353 C198.31250105 361.69855065 198.31463975 358.58130209 198.31728554 355.46405029 C198.32653675 344.55643437 198.33062139 333.64883065 198.32983398 322.74121094 C198.32923578 312.63043637 198.33973741 302.5197156 198.35557765 292.40895462 C198.3687423 283.69001646 198.37401405 274.97109567 198.37337857 266.25214767 C198.37312585 261.06252908 198.37584915 255.87295816 198.38655663 250.68334961 C198.50887154 186.79078291 188.61086145 131.28840242 142.14453125 84.203125 C109.1631738 51.21070741 62.46121364 31.03649666 15.75219727 30.8737793 C14.3204694 30.87762035 12.88874537 30.88326903 11.45703125 30.890625 C10.71540741 30.89244781 9.97378357 30.89427063 9.20968628 30.89614868 C-2.68723256 30.94519793 -14.21870702 31.59312921 -25.85546875 34.203125 Z " fill="#000000" transform="translate(244.85546875,14.796875)"/>
<path d="M0 0 C3.56884148 2.78127307 6.79730993 5.80757496 10 9 C10.763125 9.73992187 11.52625 10.47984375 12.3125 11.2421875 C31.86179521 31.40239819 39.48259459 62.68838571 40 90 C40.03867187 90.83917969 40.07734375 91.67835938 40.1171875 92.54296875 C40.98391843 123.6008271 32.99784135 157.57322868 11.30859375 180.65234375 C10.54675781 181.42707031 9.78492188 182.20179688 9 183 C8.28972656 183.72316406 7.57945312 184.44632813 6.84765625 185.19140625 C-3.88178896 195.41639291 -16.14339429 199.52170337 -30.73046875 199.25 C-45.61173271 198.11212558 -58.09047833 190.34658971 -68.19140625 179.6875 C-83.20281354 161.82656921 -90.97178004 138.85509167 -94 116 C-94.11214844 115.16855469 -94.22429687 114.33710938 -94.33984375 113.48046875 C-97.96257144 81.17367802 -92.6525692 43.5292644 -72.4375 17.125 C-71.29660674 15.74589826 -70.15115311 14.37054936 -69 13 C-68.56558594 12.40960938 -68.13117188 11.81921875 -67.68359375 11.2109375 C-51.73905038 -9.635958 -21.71443989 -13.77767468 0 0 Z M-47 35 C-63.2499516 57.71169707 -66.5876619 88.48589639 -62.63183594 115.515625 C-59.25051802 134.9719323 -52.2878536 152.50412505 -37 165.5625 C-32.03445363 167.9418243 -27.79675865 168.89376538 -22.4453125 167.18359375 C-9.97533655 161.44134039 -3.53805681 150.61201426 1.51171875 138.3203125 C2.83003592 134.57518325 3.95940727 130.83127323 5 127 C5.3196875 125.85015625 5.639375 124.7003125 5.96875 123.515625 C9.11366198 109.94591222 8.27361997 95.84096105 8 82 C6.65651489 82.42551147 6.65651489 82.42551147 5.28588867 82.85961914 C4.1126001 83.22692139 2.93931152 83.59422363 1.73046875 83.97265625 C0.56668701 84.33883057 -0.59709473 84.70500488 -1.79614258 85.08227539 C-9.82776104 87.38288149 -17.16149951 85.46142418 -24.46484375 81.74609375 C-31.96997233 77.1630951 -35.62387276 71.3893966 -38 63 C-38.87506519 53.94250703 -38.35648828 45.50728426 -32.8125 38.0625 C-32.214375 37.381875 -31.61625 36.70125 -31 36 C-31 35.34 -31 34.68 -31 34 C-30.43796875 33.72414063 -29.8759375 33.44828125 -29.296875 33.1640625 C-26.91381206 31.95631972 -24.5820992 30.67823191 -22.25 29.375 C-21.05117188 28.70597656 -21.05117188 28.70597656 -19.828125 28.0234375 C-19.22484375 27.68570313 -18.6215625 27.34796875 -18 27 C-18.87338344 24.70959137 -18.87338344 24.70959137 -21.6875 23.875 C-32.75161175 20.95240444 -40.12082069 26.73354337 -47 35 Z " fill="#000000" transform="translate(361,134)"/>
<path d="M0 0 C21.86822268 18.7002523 31.24655373 48.73922665 34 76.5 C36.42415205 110.43812871 30.86593953 147.035052 8.375 173.8125 C7.94058594 174.40289062 7.50617188 174.99328125 7.05859375 175.6015625 C-0.91572088 186.02768133 -13.84566795 192.71498045 -26.625 194.8125 C-39.90977486 195.72869137 -52.4882655 193.15362797 -63.15625 184.83984375 C-65.74013488 182.57894448 -68.19350648 180.23620027 -70.625 177.8125 C-71.7696875 176.70261719 -71.7696875 176.70261719 -72.9375 175.5703125 C-92.48679521 155.41010181 -100.10759459 124.12411429 -100.625 96.8125 C-100.68300781 95.55373047 -100.68300781 95.55373047 -100.7421875 94.26953125 C-101.59074574 63.86286107 -93.72065107 30.75938402 -73.80859375 7.12109375 C-53.07191063 -14.80266247 -24.2268332 -18.9209565 0 0 Z M-50.90625 28.55859375 C-58.09677498 37.98798673 -62.5238554 48.41814293 -65.625 59.8125 C-65.9446875 60.93914062 -66.264375 62.06578125 -66.59375 63.2265625 C-73.06062574 90.71078439 -69.90643538 123.48995431 -55.1875 147.8125 C-50.09567291 155.31096746 -44.689636 161.46635892 -35.625 163.8125 C-30.53082084 164.31584309 -26.7436658 163.23604952 -22.5625 160.3125 C-21.22002566 159.18045318 -19.90801906 158.01151186 -18.625 156.8125 C-17.61953125 155.88630859 -17.61953125 155.88630859 -16.59375 154.94140625 C-2.00582433 140.10099725 2.00108468 117.05389777 3.0625 97.125 C3.11108154 96.24585938 3.15966309 95.36671875 3.2097168 94.4609375 C3.45985426 88.78617707 3.13369831 83.44284006 2.375 77.8125 C1.199375 78.3075 0.02375 78.8025 -1.1875 79.3125 C-9.11839364 81.9310731 -18.72247187 82.40231634 -26.5625 79.25 C-34.84266375 74.79745911 -40.41859363 68.95000247 -43.20703125 59.9296875 C-44.74662375 52.13100397 -44.13227529 43.97379849 -40.625 36.8125 C-38.4375 33.875 -38.4375 33.875 -36.625 31.8125 C-36.625 31.1525 -36.625 30.4925 -36.625 29.8125 C-36.06296875 29.53664063 -35.5009375 29.26078125 -34.921875 28.9765625 C-32.53881206 27.76881972 -30.2070992 26.49073191 -27.875 25.1875 C-26.67617187 24.51847656 -26.67617187 24.51847656 -25.453125 23.8359375 C-24.84984375 23.49820313 -24.2465625 23.16046875 -23.625 22.8125 C-26.51217502 19.48184042 -28.79278275 18.96038037 -33.08984375 18.625 C-40.02878603 19.13820374 -46.30500328 23.53411915 -50.90625 28.55859375 Z " fill="#000000" transform="translate(211.625,138.1875)"/>
</svg>
